<svg xmlns="http://www.w3.org/2000/svg" viewBox="0 0 204.502 71.578">
    <defs>
        <style>
            .cls-1{fill:#fff}.cls-2{fill:none}.cls-3{clip-path:url(#clip-path)}.cls-4{clip-path:url(#clip-path-2)}.cls-5{clip-path:url(#clip-path-3)}
        </style>
        <clipPath id="clip-path">
            <path id="Path_1023" d="M163.188-9.081l33.452-23.708L163.188-56.5zm5.472-36.844l18.531 13.136-18.531 13.135z" class="cls-1" data-name="Path 1023" transform="translate(-163.188 56.5)"/>
        </clipPath>
        <clipPath id="clip-path-2">
            <path id="Path_1022" d="M-623 5412.433h2012.48V-3830.3H-623z" class="cls-2" data-name="Path 1022" transform="translate(623 3830.3)"/>
        </clipPath>
        <clipPath id="clip-path-3">
            <path id="Path_1026" d="M146.676-28.956v-20.658h-2.7q-5.592 0-8.71 2.943t-3.119 8.245q0 4.9 2.136 7.187t6.468 2.283zM137.49-8.968a20.232 20.232 0 0 1-11.337-3.219l2.52-4.2a27.832 27.832 0 0 0 4.179 1.793 14.919 14.919 0 0 0 4.762.718 9.387 9.387 0 0 0 6.7-2.283 7.958 7.958 0 0 0 2.428-6.084v-1.809h-6.176q-6.7 0-10.372-3.679t-3.67-10.633q0-7.385 4.7-11.753t12.567-4.371h8.234v31.938q0 6.406-3.793 9.993T137.49-8.968zm-31.985 0a13.969 13.969 0 0 1-6.421-1.778l1.631-4.2a13.01 13.01 0 0 0 2.52.872 10.78 10.78 0 0 0 2.153.2 5.1 5.1 0 0 0 4.424-2.3 10.437 10.437 0 0 0 1.6-6.067v-32.246h5.316v31.937q0 6.345-2.889 9.962t-8.339 3.62zm-12.793-2.513a3.421 3.421 0 0 1-2.58-.978 3.834 3.834 0 0 1-.954-2.789 3.877 3.877 0 0 1 .937-2.789 3.423 3.423 0 0 1 2.6-.978 3.331 3.331 0 0 1 2.609 1.026 3.95 3.95 0 0 1 .922 2.744 3.95 3.95 0 0 1-.926 2.745 3.331 3.331 0 0 1-2.609 1.026zm-10.876 0a3.7 3.7 0 0 1-2.5-.89 3.621 3.621 0 0 1-1.036-2.881 3.615 3.615 0 0 1 1.029-2.881 3.7 3.7 0 0 1 2.5-.89 3.429 3.429 0 0 1 2.55.965 3.838 3.838 0 0 1 .954 2.8 3.881 3.881 0 0 1-.937 2.789 3.378 3.378 0 0 1-2.566.978zm-4.087-12.57a.272.272 0 0 1-.231-.077.272.272 0 0 1-.077-.231v-4.351q0-.246.308-.246h12.075v-25.531h5.592v30.436zM67.155-60.464a3.427 3.427 0 0 1-2.581-.978 3.84 3.84 0 0 1-.952-2.789 3.874 3.874 0 0 1 .937-2.793 3.419 3.419 0 0 1 2.6-.978 3.331 3.331 0 0 1 2.609 1.026 3.955 3.955 0 0 1 .922 2.74 3.956 3.956 0 0 1-.922 2.744 3.327 3.327 0 0 1-2.609 1.026zM56.278-24.051a.271.271 0 0 1-.23-.077.271.271 0 0 1-.077-.23v-4.352q0-.246.307-.246h8.3v-25.531h5.592v25.531h8.2c.2 0 .307.082.307.246v4.352a.271.271 0 0 1-.077.23.271.271 0 0 1-.23.077zM25.471 3.564a3.425 3.425 0 0 1-2.58-.978A3.834 3.834 0 0 1 21.937-.2a3.874 3.874 0 0 1 .939-2.789 3.418 3.418 0 0 1 2.595-.978 3.327 3.327 0 0 1 2.613 1.027A3.949 3.949 0 0 1 29-.2a3.95 3.95 0 0 1-.92 2.74 3.327 3.327 0 0 1-2.613 1.027zm-10.876 0a3.7 3.7 0 0 1-2.5-.888 3.621 3.621 0 0 1-1.03-2.882 3.617 3.617 0 0 1 1.03-2.881 3.7 3.7 0 0 1 2.5-.888 3.418 3.418 0 0 1 2.551.966A3.83 3.83 0 0 1 18.1-.2a3.881 3.881 0 0 1-.937 2.789 3.378 3.378 0 0 1-2.566.978zM12.658-8.968a11.4 11.4 0 0 1-9.278-4.078Q0-17.123 0-24.113a29.721 29.721 0 0 1 .538-5.915 29.681 29.681 0 0 1 1.676-5.394h5.222a23.411 23.411 0 0 0-1.091 3.356 23.759 23.759 0 0 0-.54 3.111q-.154 1.5-.153 4.474 0 5.088 2.12 7.846a7.217 7.217 0 0 0 6.083 2.759h11.708A14.915 14.915 0 0 0 33-15.548q2.949-1.667 2.949-4a2.74 2.74 0 0 0-1.168-2.208 10.4 10.4 0 0 0-3.535-1.594 32.963 32.963 0 0 1-6.528-2.359 7.465 7.465 0 0 1-2.7-2.513 6.571 6.571 0 0 1-.937-3.555 12.75 12.75 0 0 1 2.166-6.988 17.279 17.279 0 0 1 5.61-5.472 13.127 13.127 0 0 1 6.882-2.1 8.819 8.819 0 0 1 3.765.766 10.8 10.8 0 0 1 3.084 2.222 30.561 30.561 0 0 1 3.595 4.827 52.353 52.353 0 0 0 4.009 5.854 17.351 17.351 0 0 0 2.228 2.223 7.355 7.355 0 0 0 1.935 1.1 6.183 6.183 0 0 0 2.212.384h.333c.2 0 .308.082.308.246v4.352a.272.272 0 0 1-.077.231.272.272 0 0 1-.231.077h-.338a11.542 11.542 0 0 1-5.086-1.181 17.813 17.813 0 0 1-5.022-3.908 49.689 49.689 0 0 1-3.226-4.322 32.348 32.348 0 0 0-4.823-5.761 5.41 5.41 0 0 0-3.35-1.472 6.719 6.719 0 0 0-3.686 1.318 11.832 11.832 0 0 0-3.287 3.3 6.618 6.618 0 0 0-1.322 3.571 2.335 2.335 0 0 0 1.122 1.87 12.1 12.1 0 0 0 3.61 1.566 39.286 39.286 0 0 1 6.405 2.3 7.98 7.98 0 0 1 2.858 2.314 5.058 5.058 0 0 1 .967 3.048q0 12.445-16.161 12.445z" class="cls-2" data-name="Path 1026" transform="translate(.002 68.009)"/>
        </clipPath>
    </defs>
    <g id="warrini-logo" transform="translate(-1042 -4194.272)">
        <g id="Group_732" class="cls-3" data-name="Group 732" transform="translate(1213.05 4206.333)">
            <g id="Group_731" class="cls-4" data-name="Group 731" transform="translate(-824.056 -3955.572)">
                <path id="Path_1021" d="M158.188-61.5h43.933v57.9h-43.933z" class="cls-1" data-name="Path 1021" transform="translate(660.627 4011.832)"/>
            </g>
        </g>
        <g id="Group_734" class="cls-5" data-name="Group 734" transform="translate(1042 4194.272)">
            <g id="Group_733" class="cls-4" data-name="Group 733" transform="translate(-653.006 -3943.512)">
                <path id="Path_1024" d="M-5-73h162.505V9.049H-5z" class="cls-1" data-name="Path 1024" transform="translate(652.766 4011.278)"/>
            </g>
        </g>
    </g>
</svg>
