<svg xmlns="http://www.w3.org/2000/svg" viewBox="0 0 100.422 24.977">
    <defs>
        <style>
            .cls-1{fill:#7e7e7e}
        </style>
    </defs>
    <g id="webedia-logo" transform="translate(9925 2081)">
        <g id="Group_1709" data-name="Group 1709" transform="translate(-9925 -2081)">
            <path id="Path_1146" d="M18.712 31.7l-4.139 9.6-4.251-9.6h-.306L5.8 41.3l-4.061-9.6H0l5.652 13.221h.306l4.235-9.469 4.219 9.469h.322l5.75-13.221z" class="cls-1" data-name="Path 1146" transform="translate(0 -26.595)"/>
            <g id="Group_1708" data-name="Group 1708" transform="translate(10.226)">
                <path id="Path_1147" d="M135.656 38.779l1.433.757a7.878 7.878 0 0 1-1.626 2.238 6.332 6.332 0 0 1-2.077 1.288 7.383 7.383 0 0 1-2.609.451 6.292 6.292 0 0 1-5.057-2.126 7.268 7.268 0 0 1-.274-9.292 6.3 6.3 0 0 1 5.25-2.5 6.554 6.554 0 0 1 5.411 2.56 7.222 7.222 0 0 1 1.465 4.525h-11.9a5.474 5.474 0 0 0 1.465 3.784 4.707 4.707 0 0 0 3.511 1.482 5.44 5.44 0 0 0 1.965-.354 5.318 5.318 0 0 0 1.626-.934 8.972 8.972 0 0 0 1.417-1.884m0-3.559a5.676 5.676 0 0 0-1-2.174 4.78 4.78 0 0 0-1.723-1.32 5.179 5.179 0 0 0-2.255-.5 4.837 4.837 0 0 0-3.35 1.256 5.733 5.733 0 0 0-1.546 2.738z" class="cls-1" data-name="Path 1147" transform="translate(-114.173 -24.833)"/>
                <path id="Path_1148" d="M217.1 18.326V0h1.707v7.375a7.222 7.222 0 0 1 2.4-1.965A6.743 6.743 0 0 1 228.9 6.8a6.829 6.829 0 0 1 1.981 4.944 6.7 6.7 0 0 1-2 4.9 6.536 6.536 0 0 1-4.815 2.029 6.151 6.151 0 0 1-2.931-.692 7.029 7.029 0 0 1-2.319-2.077v2.432zm6.812-1.288a5.12 5.12 0 0 0 2.625-.692 5.224 5.224 0 0 0 1.916-1.965 5.443 5.443 0 0 0 .709-2.673 5.549 5.549 0 0 0-.709-2.689 5.155 5.155 0 0 0-1.916-1.981 5.047 5.047 0 0 0-2.577-.709 5.383 5.383 0 0 0-2.657.709 4.915 4.915 0 0 0-1.932 1.916 5.441 5.441 0 0 0-.676 2.705 5.27 5.27 0 0 0 1.514 3.849 5.006 5.006 0 0 0 3.7 1.53" class="cls-1" data-name="Path 1148" transform="translate(-192.365)"/>
                <path id="Path_1149" d="M318.765 37.507H308.1a3.538 3.538 0 0 0 1.24 2.238 3.886 3.886 0 0 0 2.56.837 4.452 4.452 0 0 0 3.2-1.3l2.8 1.32a6.5 6.5 0 0 1-2.512 2.19 7.9 7.9 0 0 1-3.462.709 6.869 6.869 0 0 1-5.073-1.965 6.676 6.676 0 0 1-1.965-4.912 6.9 6.9 0 0 1 1.948-5.024 6.544 6.544 0 0 1 4.9-2 6.8 6.8 0 0 1 5.089 2 7.235 7.235 0 0 1 1.965 5.282zm-3.317-2.607a3.317 3.317 0 0 0-1.3-1.8 3.745 3.745 0 0 0-2.255-.692 3.983 3.983 0 0 0-2.432.773 4.569 4.569 0 0 0-1.224 1.707h7.214z" class="cls-1" data-name="Path 1149" transform="translate(-266.026 -24.833)"/>
                <path id="Path_1150" d="M402.555 0h3.333v18.342h-3.317v-1.4a6.7 6.7 0 0 1-1.948 1.337 5.377 5.377 0 0 1-2.126.4 5.88 5.88 0 0 1-4.428-1.981 6.966 6.966 0 0 1-1.868-4.944A7.1 7.1 0 0 1 394 6.731a5.779 5.779 0 0 1 4.4-1.965 5.507 5.507 0 0 1 2.238.451 6.382 6.382 0 0 1 1.932 1.353L402.555 0zm-3.478 7.826a3.36 3.36 0 0 0-2.56 1.1 3.929 3.929 0 0 0-1.015 2.786 3.949 3.949 0 0 0 1.031 2.818 3.357 3.357 0 0 0 2.544 1.111 3.429 3.429 0 0 0 2.593-1.1 3.949 3.949 0 0 0 1.031-2.85 3.884 3.884 0 0 0-1.031-2.8 3.436 3.436 0 0 0-2.593-1.063" class="cls-1" data-name="Path 1150" transform="translate(-339.268)"/>
                <path id="Rectangle_393" d="M0 0h3.317v13.221H0z" class="cls-1" data-name="Rectangle 393" transform="translate(67.699 5.105)"/>
                <path id="Path_1151" d="M518.071 29.854h3.317v13.221h-3.317v-1.4a6.7 6.7 0 0 1-1.949 1.337 5.377 5.377 0 0 1-2.126.4 5.879 5.879 0 0 1-4.428-1.981 6.966 6.966 0 0 1-1.868-4.944 7.1 7.1 0 0 1 1.8-5.024 5.779 5.779 0 0 1 4.4-1.965 5.562 5.562 0 0 1 2.238.451 6.384 6.384 0 0 1 1.932 1.353v-1.448zm-3.494 2.722a3.36 3.36 0 0 0-2.56 1.1 4.35 4.35 0 0 0 .016 5.6 3.356 3.356 0 0 0 2.544 1.111 3.429 3.429 0 0 0 2.593-1.1 3.949 3.949 0 0 0 1.031-2.85 3.884 3.884 0 0 0-1.031-2.8 3.435 3.435 0 0 0-2.593-1.063" class="cls-1" data-name="Path 1151" transform="translate(-436.168 -24.749)"/>
                <path id="Path_1152" d="M599.409 89.2a2.045 2.045 0 0 1 1.5.628 2.178 2.178 0 0 1 .016 3.044 2.081 2.081 0 0 1-3-.016 2.127 2.127 0 0 1-.628-1.546 2.089 2.089 0 0 1 2.109-2.11" class="cls-1" data-name="Path 1152" transform="translate(-511.339 -74.836)"/>
                <path id="Rectangle_394" d="M0 0h3.317v3.768H0z" class="cls-1" data-name="Rectangle 394" transform="translate(67.699)"/>
                <path id="Path_1153" d="M63.5 133.6h1.852v.612h-1.208v.612h1.208v.612h-1.208v.886h1.208v.628H63.5z" class="cls-1" data-name="Path 1153" transform="translate(-63.5 -112.086)"/>
                <path id="Path_1154" d="M78.7 133.6h.612l1.449 2.206V133.6h.644v3.35h-.612l-1.449-2.206v2.206H78.7z" class="cls-1" data-name="Path 1154" transform="translate(-76.252 -112.086)"/>
                <path id="Path_1155" d="M102.669 133.812l-.451.451a1.339 1.339 0 0 0-1-.451 1.181 1.181 0 0 0-.837.322 1.128 1.128 0 0 0 .016 1.626 1.177 1.177 0 0 0 .87.338 1.048 1.048 0 0 0 .564-.145.993.993 0 0 0 .37-.435h-.982v-.6h1.691v.145a1.718 1.718 0 0 1-.225.837 1.6 1.6 0 0 1-1.449.805 1.954 1.954 0 0 1-.934-.225 1.691 1.691 0 0 1-.66-.644 1.761 1.761 0 0 1-.242-.9 1.617 1.617 0 0 1 .451-1.159 1.765 1.765 0 0 1 1.369-.58 2.02 2.02 0 0 1 .821.161 1.536 1.536 0 0 1 .628.451" class="cls-1" data-name="Path 1155" transform="translate(-93.619 -111.75)"/>
                <path id="Path_1156" d="M124.5 133.6h.66l1.3 3.35h-.692l-.258-.692h-1.385l-.274.692h-.66zm.322.886l-.451 1.159h.9z" class="cls-1" data-name="Path 1156" transform="translate(-113.586 -112.086)"/>
                <path id="Path_1157" d="M148.953 133.812l-.451.451a1.339 1.339 0 0 0-1-.451 1.181 1.181 0 0 0-.837.322 1.128 1.128 0 0 0 .016 1.626 1.177 1.177 0 0 0 .87.338 1.048 1.048 0 0 0 .564-.145.993.993 0 0 0 .37-.435h-.985v-.6h1.707v.145a1.717 1.717 0 0 1-.225.837 1.6 1.6 0 0 1-1.449.805 1.954 1.954 0 0 1-.934-.225 1.691 1.691 0 0 1-.66-.644 1.76 1.76 0 0 1-.242-.9 1.617 1.617 0 0 1 .451-1.159 1.765 1.765 0 0 1 1.369-.58 2.02 2.02 0 0 1 .821.161 1.608 1.608 0 0 1 .612.451" class="cls-1" data-name="Path 1157" transform="translate(-132.463 -111.75)"/>
                <path id="Rectangle_395" d="M0 0h.644v3.35H0z" class="cls-1" data-name="Rectangle 395" transform="translate(17.279 21.514)"/>
                <path id="Path_1158" d="M179.2 133.6h.628l1.433 2.206V133.6h.644v3.35h-.612l-1.449-2.206v2.206h-.644z" class="cls-1" data-name="Path 1158" transform="translate(-160.568 -112.086)"/>
                <path id="Path_1159" d="M203.253 133.812l-.451.451a1.339 1.339 0 0 0-1-.451 1.181 1.181 0 0 0-.837.322 1.128 1.128 0 0 0 .016 1.626 1.177 1.177 0 0 0 .87.338 1.048 1.048 0 0 0 .564-.145.993.993 0 0 0 .37-.435h-.985v-.6h1.707v.145a1.718 1.718 0 0 1-.225.837 1.6 1.6 0 0 1-1.449.805 1.954 1.954 0 0 1-.934-.225 1.691 1.691 0 0 1-.66-.644 1.76 1.76 0 0 1-.242-.9 1.617 1.617 0 0 1 .451-1.159 1.765 1.765 0 0 1 1.369-.58 2.02 2.02 0 0 1 .821.161 1.609 1.609 0 0 1 .612.451" class="cls-1" data-name="Path 1159" transform="translate(-178.019 -111.75)"/>
                <path id="Path_1160" d="M233.2 133.6h.66l1.3 3.35h-.676l-.258-.692h-1.376l-.274.692h-.676zm.322.886l-.451 1.159h.9z" class="cls-1" data-name="Path 1160" transform="translate(-204.782 -112.086)"/>
                <path id="Path_1161" d="M255.016 133.6h.644v2.174a1.168 1.168 0 0 0 .048.4.376.376 0 0 0 .161.193.493.493 0 0 0 .274.064.556.556 0 0 0 .29-.081.41.41 0 0 0 .177-.193 1.377 1.377 0 0 0 .048-.451v-2.093h.644v2a2.41 2.41 0 0 1-.064.709.968.968 0 0 1-.225.386 1.009 1.009 0 0 1-.37.274 1.205 1.205 0 0 1-.5.081 1.236 1.236 0 0 1-.644-.161 1.061 1.061 0 0 1-.386-.419 2.151 2.151 0 0 1-.113-.853v-2.03h.016z" class="cls-1" data-name="Path 1161" transform="translate(-224.162 -112.086)"/>
                <path id="Path_1162" d="M273.9 133.6h.757a2.652 2.652 0 0 1 1.1.177 1.415 1.415 0 0 1 .6.6 1.845 1.845 0 0 1 .225.95 1.982 1.982 0 0 1-.129.709 1.608 1.608 0 0 1-.354.548 1.132 1.132 0 0 1-.5.29 3.852 3.852 0 0 1-.918.08h-.781zm.644.612v2.11h.306a1.584 1.584 0 0 0 .644-.1.732.732 0 0 0 .322-.338 1.282 1.282 0 0 0 .129-.58 1.058 1.058 0 0 0-.306-.821 1.2 1.2 0 0 0-.87-.258l-.225-.016z" class="cls-1" data-name="Path 1162" transform="translate(-240.018 -112.086)"/>
                <path id="Rectangle_396" d="M0 0h.644v3.35H0z" class="cls-1" data-name="Rectangle 396" transform="translate(37.135 21.514)"/>
                <path id="Path_1163" d="M302.6 133.6h1.836v.612h-1.208v.612h1.208v.612h-1.208v.886h1.208v.628H302.6z" class="cls-1" data-name="Path 1163" transform="translate(-264.096 -112.086)"/>
                <path id="Path_1164" d="M317.8 133.6h.612l1.449 2.206V133.6h.644v3.35h-.628l-1.433-2.206v2.206h-.644z" class="cls-1" data-name="Path 1164" transform="translate(-276.849 -112.086)"/>
                <path id="Path_1165" d="M341.669 133.592l-.451.419a1.384 1.384 0 0 0-1.031-.483 1.17 1.17 0 0 0-.821.322 1.083 1.083 0 0 0-.338.805 1.209 1.209 0 0 0 .145.6 1.009 1.009 0 0 0 .419.4 1.209 1.209 0 0 0 .6.145 1.336 1.336 0 0 0 .515-.1 1.839 1.839 0 0 0 .515-.37l.435.451a2.5 2.5 0 0 1-.709.5 1.922 1.922 0 0 1-.757.145 1.71 1.71 0 0 1-1.787-1.771 1.764 1.764 0 0 1 .225-.886 1.659 1.659 0 0 1 .66-.628 1.863 1.863 0 0 1 .918-.242 2.017 2.017 0 0 1 .805.177 2.527 2.527 0 0 1 .66.515" class="cls-1" data-name="Path 1165" transform="translate(-294.131 -111.498)"/>
                <path id="Path_1166" d="M362.2 133.6h1.852v.612h-1.208v.612h1.208v.612h-1.208v.886h1.208v.628H362.2z" class="cls-1" data-name="Path 1166" transform="translate(-314.099 -112.086)"/>
                <path id="Path_1167" d="M377.493 133.464l-.483.419a.694.694 0 0 0-.515-.354.3.3 0 0 0-.209.064.223.223 0 0 0-.081.145.231.231 0 0 0 .064.161 4.951 4.951 0 0 0 .467.435c.242.209.4.338.451.386a1.28 1.28 0 0 1 .274.37.973.973 0 0 1 .081.386.877.877 0 0 1-.29.676 1.063 1.063 0 0 1-.757.274 1.149 1.149 0 0 1-.628-.177 1.451 1.451 0 0 1-.467-.548l.548-.322c.161.29.354.451.564.451a.379.379 0 0 0 .274-.1.281.281 0 0 0 .113-.225.427.427 0 0 0-.081-.225 2.7 2.7 0 0 0-.37-.354 3.558 3.558 0 0 1-.708-.692.826.826 0 0 1-.161-.483.8.8 0 0 1 .274-.6.967.967 0 0 1 .66-.258 1.06 1.06 0 0 1 .483.113 2.064 2.064 0 0 1 .5.451" class="cls-1" data-name="Path 1167" transform="translate(-325.173 -111.498)"/>
                <path id="Path_1168" d="M399.7 133.6h.354l.692 2.416.966-2.416h.064l.966 2.416.708-2.416h.338l-.966 3.35h-.064l-1.015-2.544-1.015 2.544h-.064z" class="cls-1" data-name="Path 1168" transform="translate(-345.56 -112.086)"/>
                <path id="Rectangle_397" d="M0 0h.338v3.35H0z" class="cls-1" data-name="Rectangle 397" transform="translate(58.81 21.514)"/>
                <path id="Path_1169" d="M433.5 133.922v-.322h1.852v.322h-.752v3.027h-.338v-3.027z" class="cls-1" data-name="Path 1169" transform="translate(-373.917 -112.086)"/>
                <path id="Path_1170" d="M448 133.6h.338v1.4h1.723v-1.4h.338v3.35h-.338v-1.626h-1.723v1.626H448z" class="cls-1" data-name="Path 1170" transform="translate(-386.082 -112.086)"/>
                <path id="Path_1171" d="M476.1 133.6h.676a4.229 4.229 0 0 1 .789.048.832.832 0 0 1 .467.29.8.8 0 0 1 .177.548.805.805 0 0 1-.676.837 4.962 4.962 0 0 1-.854.048h-.242v1.562h-.337zm.338.322v1.143h.58a1.429 1.429 0 0 0 .515-.064.553.553 0 0 0 .258-.209.533.533 0 0 0 0-.612.466.466 0 0 0-.242-.193 1.611 1.611 0 0 0-.5-.064z" class="cls-1" data-name="Path 1171" transform="translate(-409.657 -112.086)"/>
                <path id="Path_1172" d="M493.275 133.6l1.578 3.35h-.37l-.531-1.111H492.5l-.531 1.111h-.37l1.594-3.35zm-.048.709l-.58 1.208h1.159z" class="cls-1" data-name="Path 1172" transform="translate(-422.661 -112.086)"/>
                <path id="Path_1173" d="M512.9 135.818l.29-.177c.209.37.435.548.708.548a.733.733 0 0 0 .322-.081.569.569 0 0 0 .226-.209.543.543 0 0 0 .08-.274.567.567 0 0 0-.113-.338 3.288 3.288 0 0 0-.58-.531 4.065 4.065 0 0 1-.531-.451.868.868 0 0 1-.177-.515.727.727 0 0 1 .113-.4.994.994 0 0 1 .29-.29.939.939 0 0 1 .419-.1.893.893 0 0 1 .451.113 1.384 1.384 0 0 1 .435.435l-.274.209a2.24 2.24 0 0 0-.322-.338.657.657 0 0 0-.29-.081.52.52 0 0 0-.338.129.412.412 0 0 0-.129.306.446.446 0 0 0 .048.209.853.853 0 0 0 .161.225 5.37 5.37 0 0 0 .435.338 2.042 2.042 0 0 1 .6.58.856.856 0 0 1-.113 1.127.978.978 0 0 1-.676.274 1 1 0 0 1-.564-.161 1.335 1.335 0 0 1-.467-.548" class="cls-1" data-name="Path 1173" transform="translate(-440.531 -111.582)"/>
                <path id="Path_1174" d="M527.4 135.818l.29-.177c.209.37.435.548.708.548a.732.732 0 0 0 .322-.081.569.569 0 0 0 .226-.209.543.543 0 0 0 .081-.274.567.567 0 0 0-.113-.338 3.3 3.3 0 0 0-.58-.531 4.049 4.049 0 0 1-.531-.451.867.867 0 0 1-.177-.515.727.727 0 0 1 .113-.4 1 1 0 0 1 .29-.29.939.939 0 0 1 .419-.1.893.893 0 0 1 .451.113 1.384 1.384 0 0 1 .435.435l-.274.209a2.245 2.245 0 0 0-.322-.338.656.656 0 0 0-.29-.081.52.52 0 0 0-.338.129.413.413 0 0 0-.129.306.445.445 0 0 0 .048.209.848.848 0 0 0 .161.225 5.37 5.37 0 0 0 .435.338 2.042 2.042 0 0 1 .6.58.856.856 0 0 1-.113 1.127.977.977 0 0 1-.676.274 1 1 0 0 1-.564-.161 1.626 1.626 0 0 1-.467-.548" class="cls-1" data-name="Path 1174" transform="translate(-452.696 -111.582)"/>
                <path id="Rectangle_398" d="M0 0h.338v3.35H0z" class="cls-1" data-name="Rectangle 398" transform="translate(77.361 21.514)"/>
                <path id="Path_1175" d="M551.655 133a1.787 1.787 0 0 1 1.288.515 1.713 1.713 0 0 1 .515 1.256 1.766 1.766 0 0 1-.515 1.256 1.713 1.713 0 0 1-1.256.515 1.777 1.777 0 0 1-1.272-.515 1.7 1.7 0 0 1-.515-1.24 1.782 1.782 0 0 1 .886-1.546 1.608 1.608 0 0 1 .87-.242m.016.338a1.379 1.379 0 0 0-.708.193 1.482 1.482 0 0 0-.531.515 1.436 1.436 0 0 0-.193.725 1.43 1.43 0 0 0 1.433 1.433 1.437 1.437 0 0 0 .725-.193 1.321 1.321 0 0 0 .515-.515 1.436 1.436 0 0 0 .193-.725 1.394 1.394 0 0 0-.193-.725 1.483 1.483 0 0 0-.531-.515 1.423 1.423 0 0 0-.709-.193" class="cls-1" data-name="Path 1175" transform="translate(-471.572 -111.582)"/>
                <path id="Path_1176" d="M576.2 136.95v-3.35h.064l2.254 2.56v-2.56h.338v3.35h-.081l-2.222-2.544v2.544z" class="cls-1" data-name="Path 1176" transform="translate(-493.637 -112.086)"/>
            </g>
        </g>
    </g>
</svg>
