<svg xmlns="http://www.w3.org/2000/svg" viewBox="0 0 218.541 37.361">
    <defs>
        <style>
            .cls-1{fill:#fff;fill-rule:evenodd}
        </style>
    </defs>
    <g id="logo-yasmina">
        <g id="Desktop-HD-Copy">
            <g id="logo-yasmina-copy">
                <g id="Calque_1">
                    <path id="Shape" d="M33.561.851v.418a5.843 5.843 0 0 0-2.824.753 8.049 8.049 0 0 0-1.976 1.52 23.212 23.212 0 0 0-1.525 1.9l-8.47 12.548v14.294a3.493 3.493 0 0 0 1.172 2.873 4.5 4.5 0 0 0 2.824 1v.39h-11.45v-.39a4.111 4.111 0 0 0 2.824-.976 3.737 3.737 0 0 0 1.016-2.9V18.59L5.961 4.979a10.041 10.041 0 0 0-2.64-2.929 6.215 6.215 0 0 0-3.148-.781V.851h12.833v.418a3.2 3.2 0 0 0-2.513.837 2.507 2.507 0 0 0-.55 1.394 4.45 4.45 0 0 0 .96 2.176l7.525 11.017L25.1 6.764a7.056 7.056 0 0 0 1.53-3.417 1.881 1.881 0 0 0-.409-1.283 2.017 2.017 0 0 0-.819-.6 7.128 7.128 0 0 0-.889-.237V.809h9.049z" class="cls-1" transform="translate(-.173 -.098)"/>
                    <path id="Shape-2" d="M52.108.373l10.814 30.569a15.074 15.074 0 0 0 1.624 3.445 3.649 3.649 0 0 0 1.412 1.395 6.407 6.407 0 0 0 1.779.377v.39h-11.8v-.39a8.941 8.941 0 0 0 2.824-.335 1.7 1.7 0 0 0 .974-1.841 7.355 7.355 0 0 0-.466-2.2.733.733 0 0 1-.1-.293l-3.219-9.469H43.44l-2.824 8.772a9.8 9.8 0 0 0-.593 2.887 2.231 2.231 0 0 0 .762 1.994 3.935 3.935 0 0 0 2.16.5v.39h-8.47v-.39a4.255 4.255 0 0 0 2.908-1.395 10.193 10.193 0 0 0 1.906-3.64L49.5.457h2.65zm-8.216 20.3h11.562L49.567 3.748h-.1z" class="cls-1" data-name="Shape" transform="translate(-3.712 -.053)"/>
                    <path id="Shape-3" d="M92.843 7.588h-.4a7.719 7.719 0 0 0-2.287-4.546 6.951 6.951 0 0 0-5.139-1.952 7.126 7.126 0 0 0-3.7.976 6.63 6.63 0 0 0-2.5 2.636 8.076 8.076 0 0 0-.889 3.821 7.821 7.821 0 0 0 .522 2.97 6.62 6.62 0 0 0 1.56 2.287 14.183 14.183 0 0 0 2.428 1.855q1.412.865 3.784 2.162a28.24 28.24 0 0 1 6.184 4.3 7.811 7.811 0 0 1 2.2 5.871 8.869 8.869 0 0 1-1.186 4.393 9.139 9.139 0 0 1-3.6 3.472 11.978 11.978 0 0 1-5.958 1.395 14.926 14.926 0 0 1-3.953-.474 20.787 20.787 0 0 1-3.445-1.269 4.008 4.008 0 0 0-1-.237.651.651 0 0 0-.678.363 10.676 10.676 0 0 0-.424 1.576h-.422v-8.959h.424a10.055 10.055 0 0 0 3.431 5.941 9.707 9.707 0 0 0 6.212 2.008 8.342 8.342 0 0 0 4.4-1.018A5.6 5.6 0 0 0 90.7 32.69a7.191 7.191 0 0 0 .635-2.9 6.744 6.744 0 0 0-1.849-4.909 22.594 22.594 0 0 0-5.647-3.891q-2.6-1.395-3.854-2.176a15.5 15.5 0 0 1-2.541-2.008 9.051 9.051 0 0 1-2.824-6.778A9.4 9.4 0 0 1 76.029 5.2a10.024 10.024 0 0 1 3.826-3.7A11.262 11.262 0 0 1 85.5.113a15.989 15.989 0 0 1 4.885.795 2.412 2.412 0 0 0 1.059.2 1.179 1.179 0 0 0 1.1-1.088h.4v7.568z" class="cls-1" data-name="Shape" transform="translate(-7.784 -.016)"/>
                    <path id="Shape-4" d="M138.815.849v.418q-1.031.126-1.412.209a2.439 2.439 0 0 0-.974.5 2.94 2.94 0 0 0-1.045 1.185 6.894 6.894 0 0 0-.254 1.938.662.662 0 0 0 0 .432l1.256 26.5a5.624 5.624 0 0 0 .8 2.887 3.709 3.709 0 0 0 3.318 1.241v.39h-11.7v-.39a4.26 4.26 0 0 0 3.12-1.325 5.136 5.136 0 0 0 .692-3.361l-1.255-27.416h-.1L118.557 36.55 106.486 5.242h-.1l-1.3 25.3a9.867 9.867 0 0 0 .254 3.235 2.789 2.789 0 0 0 1.144 1.646 6.266 6.266 0 0 0 2.329.739v.39h-9.104v-.39a3.986 3.986 0 0 0 2.654-.823 3.742 3.742 0 0 0 1.186-1.994 21.765 21.765 0 0 0 .424-3.277L105.385 3.9a1.168 1.168 0 0 0-.3-.516 5.607 5.607 0 0 0-.72-.753 4.881 4.881 0 0 0-.819-.6 3.95 3.95 0 0 0-1.412-.6q-.607-.084-1.722-.153V.863h8.358l11.111 29.119L131.178.793h7.581z" class="cls-1" data-name="Shape" transform="translate(-10.443 -.096)"/>
                    <path id="Shape-5" d="M159.941.856v.418a4.27 4.27 0 0 0-2.753.893 3.588 3.588 0 0 0-1.129 2.984v27.082a3.548 3.548 0 0 0 1.2 3 4.268 4.268 0 0 0 2.668.934v.39h-11.449v-.39a4.269 4.269 0 0 0 2.711-.906 3.629 3.629 0 0 0 1.144-3.012V5.151a3.546 3.546 0 0 0-1.144-3.051 4.514 4.514 0 0 0-2.711-.823V.856h11.464z" class="cls-1" data-name="Shape" transform="translate(-15.475 -.102)"/>
                    <path id="Shape-6" d="M202.544.849v.418a7.958 7.958 0 0 0-2.174.516 2.464 2.464 0 0 0-1.242 1.395 7.818 7.818 0 0 0-.438 2.97v31.309h-.24L170.708 6.888v21.95a27.307 27.307 0 0 0 .226 4.072 4.729 4.729 0 0 0 .635 1.911 3.861 3.861 0 0 0 3.162 1.395v.39h-9.049v-.39a4.617 4.617 0 0 0 2.372-.641 3.282 3.282 0 0 0 1.2-2.078 21.609 21.609 0 0 0 .353-4.56V5.577l-1.2-1.395a9.983 9.983 0 0 0-2.555-2.259 8.7 8.7 0 0 0-2.372-.711V.793h6.791l27.318 30.234V8.045a26.378 26.378 0 0 0-.212-3.877 3.334 3.334 0 0 0-1.1-2.064 4.5 4.5 0 0 0-2.824-.851V.835h9.078z" class="cls-1" data-name="Shape" transform="translate(-17.023 -.096)"/>
                    <path id="Shape-7" d="M224.413.373l10.814 30.569a15.073 15.073 0 0 0 1.624 3.445 3.648 3.648 0 0 0 1.412 1.395 6.407 6.407 0 0 0 1.779.377v.39h-11.8v-.39a8.941 8.941 0 0 0 2.824-.335 1.7 1.7 0 0 0 .974-1.841 7.37 7.37 0 0 0-.466-2.2.733.733 0 0 1-.1-.293l-3.219-9.469h-12.426l-2.824 8.772a9.8 9.8 0 0 0-.593 2.887 2.231 2.231 0 0 0 .762 1.994 3.935 3.935 0 0 0 2.16.5v.39h-8.471v-.39a4.255 4.255 0 0 0 2.908-1.395 10.178 10.178 0 0 0 1.906-3.64L221.886.457h2.654zm-8.217 20.3H227.7l-5.887-16.93h-.1z" class="cls-1" data-name="Shape" transform="translate(-21.5 -.053)"/>
                </g>
            </g>
        </g>
    </g>
</svg>
