<svg xmlns="http://www.w3.org/2000/svg" viewBox="0 0 9.968 8.097">
    <defs>
        <style>
            .cls-1{fill:#c7c7c7}
        </style>
    </defs>
    <g id="twitter">
        <path id="Path_21" d="M9.969 58.4a4.084 4.084 0 0 1-1.174.322 2.053 2.053 0 0 0 .9-1.131 4.122 4.122 0 0 1-1.3.5 2.046 2.046 0 0 0-3.485 1.86A5.805 5.805 0 0 1 .7 57.815a2.047 2.047 0 0 0 .633 2.729 2.045 2.045 0 0 1-.933-.256v.026a2.047 2.047 0 0 0 1.64 2.005 2.071 2.071 0 0 1-.539.072 1.963 1.963 0 0 1-.385-.038 2.046 2.046 0 0 0 1.91 1.42 4.1 4.1 0 0 1-2.539.874A4.347 4.347 0 0 1 0 64.618a5.78 5.78 0 0 0 3.134.92 5.778 5.778 0 0 0 5.819-5.818l-.007-.265A4.083 4.083 0 0 0 9.969 58.4z" class="cls-1" data-name="Path 21" transform="translate(-.001 -57.441)"/>
    </g>
</svg>
