<svg xmlns="http://www.w3.org/2000/svg" id="diwanee-logo" viewBox="0 0 117.322 31.264">
    <defs>
        <style>
            .cls-1,.cls-2{fill:#fff;fill-rule:evenodd}.cls-2{fill:#c41230}
        </style>
    </defs>
    <g id="Desktop-HD-Copy">
        <g id="Page-1">
            <g id="Group_1" data-name="Group 1">
                <path id="Fill-1" d="M36.766 5.9a1.909 1.909 0 0 1-2.024 1.9A1.712 1.712 0 0 1 33 6.1a1.911 1.911 0 0 1 2.025-1.9 1.713 1.713 0 0 1 1.741 1.7" class="cls-1" transform="translate(-7.155 -1.592)"/>
                <path id="Fill-3" d="M119.737 37.893a1.909 1.909 0 0 1-2.024 1.9 1.713 1.713 0 0 1-1.745-1.694 1.91 1.91 0 0 1 2.025-1.9 1.712 1.712 0 0 1 1.744 1.693" class="cls-2" transform="translate(-25.146 -8.531)"/>
                <path id="Fill-5" d="M126.357 37.893a1.909 1.909 0 0 1-2.024 1.9 1.713 1.713 0 0 1-1.745-1.694 1.911 1.911 0 0 1 2.025-1.9 1.711 1.711 0 0 1 1.744 1.693" class="cls-2" transform="translate(-26.581 -8.531)"/>
                <g id="Group-9">
                    <path id="Fill-7" d="M5.933 24.408c-1.675 0-2.793-1.039-2.793-3.457 0-3.94 2.654-10.647 6.143-10.647 2.653 0 3.385 2.35 3.385 4.114 0 3.041-2.9 9.99-6.736 9.99M42.418 10.3a1.878 1.878 0 0 0-1.918 1.866c0 2.283 3.632 2.006 3.632 4.944 0 .933-1.256 6.533-6.178 6.533-3.729 0-3.812-1.113-3.736-2.279.13-1.057.754-1.681.815-4.348 0-1.667-.868-3.386-2.3-3.386a1.459 1.459 0 0 0-1.494 1.45c0 1.774 2.821 1.56 2.821 3.844 0 1.763-1.894 5.143-4.871 4.74a4.466 4.466 0 0 1-1.577-.264 4.504 4.504 0 0 0-.267-.113 3.169 3.169 0 0 1-1.288-1.119 4.294 4.294 0 0 1-.11-2.877l-.029.043A45.048 45.048 0 0 0 27.6 12.2a2.538 2.538 0 0 0-2.827-2.731c-2.99 0-4.346 3.356-4.731 4.731-.038.134-2.128 6.63-2.311 7.126-.524 1.453-1.291 2.661-2.478 2.661a.979.979 0 0 1-1.082-1.1c0-.9.28-1.937 5.061-22.678-4.782 1.141-6.354.9-6.354 1.521 0 .589 2.236.207 2.236 1.936 0 .9-.175 1.591-1.816 9.091h-.069c-.489-1.52-1.362-3.284-4.014-3.284C4.817 9.474 0 14.9 0 20.19c0 3.456 1.675 5.53 4.607 5.53 2.756 0 5.1-1.97 6.98-5.391l.069.069a10.93 10.93 0 0 0-.348 2.49A2.527 2.527 0 0 0 14 25.72a4.358 4.358 0 0 0 3.742-2.687c.544-1.024 3.09-9.074 3.126-9.168.557-1.453 1.327-2.663 2.511-2.663a.982.982 0 0 1 1.085 1.107 2.989 2.989 0 0 1-.059.493c-.075.344-.368 1.483-.687 2.7-.137.48-.283.987-.433 1.5-.13.457-.234.9-.314 1.331-.118.449-.2.764-.228.854A9.631 9.631 0 0 0 22.55 21a5.58 5.58 0 0 0 .917 3.279 5.957 5.957 0 0 0 6.251 1.379l.016-.007a7.08 7.08 0 0 0 2.22-1.451 4.934 4.934 0 0 0 4.04 2.069c5.132 0 9.39-5.91 9.39-11.614 0-2.143-1.118-4.356-2.967-4.356" class="cls-1" transform="translate(-.001 -.209)"/>
                </g>
                <path id="Fill-10" d="M64.037 28.064c-1.465 0-2.477-.623-2.477-3.319 0-4.356 2.653-10.786 6.142-10.786 1.921 0 3.385 1.243 3.385 4.01 0 2.7-2.791 10.094-7.051 10.094m45.148-14.311c1.187 0 1.989.621 1.989 2.143a4.526 4.526 0 0 1-1.046 2.9c-1.327 1.556-4.922 2.177-7.469 2.661.384-5.531 4.12-7.708 6.526-7.708m-1.151 13.62a5.008 5.008 0 0 1-4.95-2.9 5.549 5.549 0 0 1-.424-2.319 57.488 57.488 0 0 0 6.491-1.521c3.525-1.176 4.678-2.764 4.678-4.251 0-2.026-1.741-3.154-4.231-3.24a.286.286 0 0 0-.035 0H109.212c-4.3-.064-7.668 2.251-8.878 5.38-.514 1.4-2.674 7-2.79 7.251-.5 1.081-1.194 1.886-2.161 1.886a.981.981 0 0 1-1.083-1.112c0-1.036 2.025-7.813 2.025-9.61a3.629 3.629 0 0 0-3.769-3.8c-2.723 0-4.5 1.693-6.494 5.256L86 18.315a12.572 12.572 0 0 0 .244-2.35 2.6 2.6 0 0 0-2.827-2.836c-2.606 0-3.972 2.553-4.532 4.117 0 0-2.618 7.3-3.146 8.464s-1.088 1.661-1.887 1.661a1 1 0 0 1-1.083-1.037c0-1.037.314-1.971 1.536-7.813.489-2.281 1.675-4.148 1.675-4.666a.41.41 0 0 0-.418-.45c-.489 0-.943.587-3.84 3.214A4.082 4.082 0 0 0 67.6 13.13c-3.561 0-9.18 4.426-9.18 11.164 0 3.009 1.465 5.083 4.5 5.083 3.8 0 5.9-3.353 6.7-4.77l.069.069a16.879 16.879 0 0 0-.069 1.763c0 1.9.906 2.939 2.931 2.939 1.9 0 3.2-1.716 3.791-3.06s3.157-8.8 3.157-8.8c.558-1.451 1.327-2.663 2.514-2.663.767 0 1.08.519 1.08 1.279 0 1.349-1.36 7.467-2.511 13.1a4.851 4.851 0 0 1 1.359-.207 7.68 7.68 0 0 1 1.608.207l1.6-6.533c.489-1.97 2.794-8.263 6.109-8.263a1.739 1.739 0 0 1 1.92 1.9c0 1.8-2.024 8.261-2.024 10.2a2.545 2.545 0 0 0 2.755 2.834c2.1 0 3.235-1.129 4.073-2.864.271-.54 1.528-3.786 1.528-3.786a7.1 7.1 0 0 0 .847 3.377 6.265 6.265 0 0 0 5.68 3.273c4.711 0 7.436-4.6 7.294-4.6-.211 0-3.909 2.593-5.305 2.593" class="cls-1" transform="translate(-12.667 -3.528)"/>
                <path id="Fill-12" d="M127.945 24.806c-1.339 1.877-4.043 4.886-8.054 5.693a5.454 5.454 0 0 1-2.13.063c-3.589-.684-3.195-5.527-3.165-5.771s.314-.311.361-.1c.035.17.584 3.216 4.689 3.363 3.414-.021 6.579-3.141 8.691-7.064.222-.413.974-1.944 1.126-2.187s.674-.259.4.7-1.147 4.25-1.916 5.308" class="cls-2" transform="translate(-24.842 -4.727)"/>
                <g id="Group-16" transform="translate(103.013 9.602)">
                    <path id="Fill-14" d="M3.142 8.9c2.547-.484 6.145-1.107 7.47-2.663a4.522 4.522 0 0 0 1.046-2.9c0-1.521-.8-2.143-1.989-2.143C7.261 1.2 3.525 3.371 3.142 8.9M9.774.572c2.653 0 4.536 1.14 4.536 3.249 0 1.487-1.152 3.077-4.676 4.253A57.844 57.844 0 0 1 3.142 9.6c-.069 2.8 1.745 5.218 5.374 5.218a6.078 6.078 0 0 0 3.42-1.176c1.4-1 1.676-1.416 1.885-1.416a.247.247 0 0 1 .245.276c0 .45-2.827 4.32-7.538 4.32A6.419 6.419 0 0 1 0 10.148C0 3.788 6.282.572 9.774.572" class="cls-1" transform="translate(-.001 -.572)"/>
                </g>
                <path id="Fill-17" d="M136.007 15.051c1.326-2.074 2.875-4.414 4.819-4.414a2.315 2.315 0 0 1 2.41 2.454c0 1.867-2.376 4.6-2.9 4.6-.175 0-.244-.07-.244-.276 0-.45 1.675-1.314 1.675-3.146a1.366 1.366 0 0 0-1.465-1.486 3.505 3.505 0 0 0-2.24.94c-.082.071-1.654.991-2.057 1.33" class="cls-2" transform="translate(-29.491 -2.988)"/>
            </g>
        </g>
    </g>
</svg>
