<svg xmlns="http://www.w3.org/2000/svg" id="diwanee-logo" viewBox="0 0 70.321 18.739">
    <defs>
        <style>
            .cls-1,.cls-2{fill:#140f21;fill-rule:evenodd}.cls-2{fill:#c41230}
        </style>
    </defs>
    <g id="Desktop-HD-Copy">
        <g id="Page-1">
            <g id="Group_1" data-name="Group 1">
                <path id="Fill-1" d="M35.256 5.217a1.144 1.144 0 0 1-1.213 1.14A1.026 1.026 0 0 1 33 5.341 1.145 1.145 0 0 1 34.211 4.2a1.027 1.027 0 0 1 1.045 1.016" class="cls-1" transform="translate(-17.508 -2.638)"/>
                <path id="Fill-3" d="M118.227 37.215a1.144 1.144 0 0 1-1.213 1.14 1.027 1.027 0 0 1-1.046-1.016 1.145 1.145 0 0 1 1.214-1.139 1.026 1.026 0 0 1 1.045 1.015" class="cls-2" transform="translate(-61.53 -19.615)"/>
                <path id="Fill-5" d="M124.847 37.215a1.144 1.144 0 0 1-1.213 1.14 1.027 1.027 0 0 1-1.046-1.016A1.146 1.146 0 0 1 123.8 36.2a1.025 1.025 0 0 1 1.045 1.015" class="cls-2" transform="translate(-65.043 -19.615)"/>
                <g id="Group-9">
                    <path id="Fill-7" d="M3.557 14.713c-1 0-1.674-.622-1.674-2.072 0-2.362 1.591-6.382 3.682-6.382 1.59 0 2.029 1.409 2.029 2.466 0 1.823-1.736 5.988-4.038 5.988m21.869-8.455a1.125 1.125 0 0 0-1.152 1.118c0 1.368 2.177 1.2 2.177 2.963 0 .559-.753 3.916-3.7 3.916-2.235 0-2.285-.667-2.239-1.366A10.013 10.013 0 0 0 21 10.283c0-1-.52-2.029-1.381-2.029a.874.874 0 0 0-.9.869c0 1.063 1.691.935 1.691 2.3 0 1.057-1.135 3.083-2.92 2.841a2.677 2.677 0 0 1-.945-.158c-.047-.021-.1-.045-.16-.068a1.9 1.9 0 0 1-.772-.67 2.574 2.574 0 0 1-.066-1.724l-.017.026a27 27 0 0 0 1.013-4.27 1.521 1.521 0 0 0-1.695-1.637c-1.792 0-2.6 2.011-2.836 2.836-.022.08-1.275 3.974-1.385 4.271-.314.871-.774 1.6-1.485 1.6a.587.587 0 0 1-.648-.662c0-.539.168-1.161 3.034-13.593-2.866.684-3.808.539-3.808.912 0 .353 1.34.124 1.34 1.16 0 .539-.1.954-1.088 5.449H7.93a2.38 2.38 0 0 0-2.407-1.974C2.887 5.762 0 9.015 0 12.186 0 14.257 1 15.5 2.762 15.5c1.652 0 3.055-1.181 4.184-3.232l.041.041a6.551 6.551 0 0 0-.208 1.491 1.515 1.515 0 0 0 1.611 1.7 2.612 2.612 0 0 0 2.243-1.611c.326-.614 1.852-5.439 1.874-5.5.334-.871.8-1.6 1.505-1.6a.588.588 0 0 1 .65.664 1.792 1.792 0 0 1-.035.3c-.045.206-.22.889-.412 1.621-.082.288-.169.592-.259.9-.078.274-.14.539-.188.8a57.12 57.12 0 0 1-.137.512 5.772 5.772 0 0 0-.113 1.085 3.345 3.345 0 0 0 .55 1.965 3.571 3.571 0 0 0 3.747.826h.01a4.244 4.244 0 0 0 1.331-.87 2.958 2.958 0 0 0 2.422 1.24c3.076 0 5.628-3.542 5.628-6.961 0-1.284-.67-2.611-1.778-2.611" class="cls-1" transform="translate(-.001 -.209)"/>
                </g>
                <path id="Fill-10" d="M61.786 22.081c-.878 0-1.484-.373-1.484-1.989 0-2.611 1.59-6.465 3.681-6.465 1.152 0 2.029.745 2.029 2.4 0 1.616-1.673 6.05-4.226 6.05M88.847 13.5c.712 0 1.192.372 1.192 1.284a2.713 2.713 0 0 1-.627 1.741c-.8.932-2.95 1.3-4.477 1.6.23-3.315 2.469-4.62 3.911-4.62m-.69 8.164a3 3 0 0 1-2.967-1.739 3.326 3.326 0 0 1-.254-1.39 34.457 34.457 0 0 0 3.891-.912c2.113-.7 2.8-1.657 2.8-2.548 0-1.214-1.044-1.891-2.536-1.942H88.862a5.437 5.437 0 0 0-5.321 3.225c-.308.837-1.6 4.2-1.672 4.346-.3.648-.716 1.13-1.3 1.13a.588.588 0 0 1-.648-.664c0-.621 1.214-4.683 1.214-5.76a2.175 2.175 0 0 0-2.259-2.279c-1.632 0-2.7 1.015-3.892 3.15l-.041-.042a7.536 7.536 0 0 0 .146-1.409 1.559 1.559 0 0 0-1.695-1.7c-1.562 0-2.381 1.53-2.716 2.468 0 0-1.569 4.375-1.886 5.073s-.652 1-1.131 1a.6.6 0 0 1-.649-.622 36.509 36.509 0 0 1 .921-4.683c.293-1.367 1-2.487 1-2.8a.246.246 0 0 0-.251-.27c-.293 0-.565.352-2.3 1.927a2.447 2.447 0 0 0-2.468-2.093c-2.135 0-5.5 2.653-5.5 6.692 0 1.8.878 3.047 2.7 3.047 2.279 0 3.534-2.01 4.017-2.859l.041.041a10.122 10.122 0 0 0-.041 1.057 1.551 1.551 0 0 0 1.757 1.761 2.746 2.746 0 0 0 2.272-1.834c.354-.8 1.893-5.272 1.893-5.272.335-.87.8-1.6 1.507-1.6.46 0 .648.311.648.766 0 .808-.815 4.476-1.505 7.853a2.907 2.907 0 0 1 .814-.124 4.6 4.6 0 0 1 .964.124l.961-3.916c.293-1.181 1.675-4.953 3.661-4.953a1.042 1.042 0 0 1 1.151 1.141c0 1.077-1.213 4.952-1.213 6.112a1.526 1.526 0 0 0 1.651 1.7 2.549 2.549 0 0 0 2.442-1.717c.163-.324.916-2.269.916-2.269a4.255 4.255 0 0 0 .508 2.024 3.755 3.755 0 0 0 3.4 1.962 5.38 5.38 0 0 0 4.372-2.755c-.126 0-2.343 1.554-3.18 1.554" class="cls-1" transform="translate(-30.996 -7.375)"/>
                <path id="Fill-12" d="M122.587 22.344a8.209 8.209 0 0 1-4.828 3.412 3.269 3.269 0 0 1-1.277.038c-2.151-.41-1.915-3.313-1.9-3.459s.188-.187.216-.061a2.647 2.647 0 0 0 2.811 2.016c2.046-.013 3.943-1.883 5.209-4.234.133-.247.584-1.165.675-1.311s.4-.155.239.418a14.843 14.843 0 0 1-1.148 3.182" class="cls-2" transform="translate(-60.788 -10.309)"/>
                <g id="Group-16" transform="translate(61.745 5.755)">
                    <path id="Fill-14" d="M1.884 5.566c1.527-.29 3.683-.664 4.478-1.6a2.711 2.711 0 0 0 .627-1.74C6.988 1.318 6.506.946 5.8.946c-1.443 0-3.682 1.3-3.912 4.62M5.859.572c1.59 0 2.719.683 2.719 1.947 0 .891-.691 1.844-2.8 2.549a34.671 34.671 0 0 1-3.891.912A2.953 2.953 0 0 0 5.1 9.108a3.643 3.643 0 0 0 2.05-.7c.838-.6 1-.849 1.13-.849a.148.148 0 0 1 .147.165 5.284 5.284 0 0 1-4.513 2.586A3.848 3.848 0 0 1 0 6.312C0 2.5 3.766.572 5.859.572" class="cls-1" transform="translate(-.001 -.572)"/>
                </g>
                <path id="Fill-17" d="M136.007 13.283c.795-1.243 1.723-2.646 2.889-2.646a1.387 1.387 0 0 1 1.445 1.471 4.144 4.144 0 0 1-1.737 2.755c-.1 0-.146-.042-.146-.165 0-.27 1-.788 1-1.885a.819.819 0 0 0-.878-.891 2.1 2.1 0 0 0-1.343.563c-.049.043-.992.594-1.233.8" class="cls-2" transform="translate(-72.162 -6.052)"/>
            </g>
        </g>
    </g>
</svg>
