<svg xmlns="http://www.w3.org/2000/svg" id="webedia-logo" viewBox="0 0 79.578 19.792">
    <defs>
        <style>
            .cls-1{fill:#818391}
        </style>
    </defs>
    <path id="Path_1146" d="M14.828 31.7l-3.28 7.606L8.18 31.7h-.243l-3.343 7.606L1.378 31.7H0l4.479 10.477h.242l3.356-7.5 3.343 7.5h.255L16.232 31.7z" class="cls-1" data-name="Path 1146" transform="translate(0 -27.655)"/>
    <g id="Group_1708" data-name="Group 1708" transform="translate(8.103)">
        <path id="Path_1147" d="M133.216 36.874l1.136.6a6.243 6.243 0 0 1-1.289 1.774 5.018 5.018 0 0 1-1.646 1.021 5.85 5.85 0 0 1-2.067.357 4.986 4.986 0 0 1-4.007-1.684 5.76 5.76 0 0 1-.217-7.363 5 5 0 0 1 4.16-1.978 5.194 5.194 0 0 1 4.288 2.029 5.723 5.723 0 0 1 1.161 3.586H125.3a4.338 4.338 0 0 0 1.161 3 3.73 3.73 0 0 0 2.782 1.174 4.311 4.311 0 0 0 1.557-.281 4.214 4.214 0 0 0 1.289-.74 7.11 7.11 0 0 0 1.123-1.493m0-2.82a4.5 4.5 0 0 0-.791-1.723 3.788 3.788 0 0 0-1.365-1.046 4.1 4.1 0 0 0-1.787-.4 3.833 3.833 0 0 0-2.654 1 4.543 4.543 0 0 0-1.225 2.169z" class="cls-1" data-name="Path 1147" transform="translate(-116.192 -25.823)"/>
        <path id="Path_1148" d="M217.1 14.522V0h1.353v5.845a5.723 5.723 0 0 1 1.9-1.557 5.343 5.343 0 0 1 6.1 1.1 5.412 5.412 0 0 1 1.57 3.918 5.306 5.306 0 0 1-1.582 3.879 5.179 5.179 0 0 1-3.816 1.608 4.874 4.874 0 0 1-2.323-.549 5.57 5.57 0 0 1-1.838-1.646v1.927zm5.4-1.021a4.057 4.057 0 0 0 2.08-.549 4.14 4.14 0 0 0 1.52-1.552 4.313 4.313 0 0 0 .561-2.118 4.4 4.4 0 0 0-.561-2.131 4.085 4.085 0 0 0-1.519-1.57 4 4 0 0 0-2.042-.561 4.266 4.266 0 0 0-2.106.561A3.9 3.9 0 0 0 218.9 7.1a4.311 4.311 0 0 0-.536 2.144 4.176 4.176 0 0 0 1.2 3.05A3.967 3.967 0 0 0 222.5 13.5" class="cls-1" data-name="Path 1148" transform="translate(-197.499)"/>
        <path id="Path_1149" d="M315.887 35.866h-8.448a2.8 2.8 0 0 0 .983 1.774 3.079 3.079 0 0 0 2.029.664 3.528 3.528 0 0 0 2.539-1.034l2.22 1.046a5.15 5.15 0 0 1-1.991 1.736 6.263 6.263 0 0 1-2.744.561 5.443 5.443 0 0 1-4.02-1.557 5.29 5.29 0 0 1-1.557-3.892 5.466 5.466 0 0 1 1.544-3.981 5.186 5.186 0 0 1 3.879-1.582 5.392 5.392 0 0 1 4.032 1.582 5.734 5.734 0 0 1 1.557 4.186zm-2.628-2.066a2.628 2.628 0 0 0-1.034-1.429 2.967 2.967 0 0 0-1.787-.549 3.156 3.156 0 0 0-1.927.613 3.621 3.621 0 0 0-.97 1.353h5.717z" class="cls-1" data-name="Path 1149" transform="translate(-274.095 -25.823)"/>
        <path id="Path_1150" d="M400.405 0h2.642v14.535h-2.629v-1.11a5.31 5.31 0 0 1-1.544 1.059 4.261 4.261 0 0 1-1.685.319 4.659 4.659 0 0 1-3.509-1.57 5.521 5.521 0 0 1-1.48-3.918 5.625 5.625 0 0 1 1.429-3.981 4.579 4.579 0 0 1 3.484-1.557 4.364 4.364 0 0 1 1.774.357 5.057 5.057 0 0 1 1.531 1.072L400.405 0zm-2.756 6.2a2.662 2.662 0 0 0-2.029.868 3.114 3.114 0 0 0-.8 2.208 3.13 3.13 0 0 0 .817 2.233 2.66 2.66 0 0 0 2.016.881 2.717 2.717 0 0 0 2.055-.868 3.13 3.13 0 0 0 .817-2.259 3.078 3.078 0 0 0-.817-2.22 2.723 2.723 0 0 0-2.055-.842" class="cls-1" data-name="Path 1150" transform="translate(-350.254)"/>
        <path id="Rectangle_393" d="M0 0h2.629v10.477H0z" class="cls-1" data-name="Rectangle 393" transform="translate(53.648 4.045)"/>
        <path id="Path_1151" d="M515.918 29.781h2.629v10.477h-2.629v-1.11a5.312 5.312 0 0 1-1.544 1.059 4.261 4.261 0 0 1-1.684.319 4.659 4.659 0 0 1-3.509-1.57 5.52 5.52 0 0 1-1.48-3.918 5.625 5.625 0 0 1 1.429-3.981 4.579 4.579 0 0 1 3.484-1.557 4.407 4.407 0 0 1 1.774.357 5.059 5.059 0 0 1 1.531 1.072v-1.148zm-2.769 2.157a2.662 2.662 0 0 0-2.029.868 3.447 3.447 0 0 0 .013 4.441 2.66 2.66 0 0 0 2.016.881 2.717 2.717 0 0 0 2.055-.868 3.13 3.13 0 0 0 .816-2.26 3.078 3.078 0 0 0-.817-2.22 2.723 2.723 0 0 0-2.055-.842" class="cls-1" data-name="Path 1151" transform="translate(-451.015 -25.735)"/>
        <path id="Path_1152" d="M598.972 89.2a1.621 1.621 0 0 1 1.187.5 1.726 1.726 0 0 1 .013 2.412 1.649 1.649 0 0 1-2.372-.012 1.686 1.686 0 0 1-.5-1.225 1.656 1.656 0 0 1 1.672-1.672" class="cls-1" data-name="Path 1152" transform="translate(-529.181 -77.817)"/>
        <path id="Rectangle_394" d="M0 0h2.629v2.986H0z" class="cls-1" data-name="Rectangle 394" transform="translate(53.648)"/>
        <path id="Path_1153" d="M63.5 133.6h1.468v.485h-.958v.485h.957v.485h-.957v.7h.957v.5H63.5z" class="cls-1" data-name="Path 1153" transform="translate(-63.5 -116.551)"/>
        <path id="Path_1154" d="M78.7 133.6h.485l1.148 1.748V133.6h.51v2.654h-.485l-1.149-1.748v1.748H78.7z" class="cls-1" data-name="Path 1154" transform="translate(-76.76 -116.551)"/>
        <path id="Path_1155" d="M101.991 133.685l-.357.357a1.061 1.061 0 0 0-.791-.357.936.936 0 0 0-.664.255.894.894 0 0 0 .013 1.289.933.933 0 0 0 .689.268.83.83 0 0 0 .447-.115.787.787 0 0 0 .294-.345h-.778v-.472h1.34v.115a1.361 1.361 0 0 1-.179.664 1.267 1.267 0 0 1-1.149.638 1.548 1.548 0 0 1-.74-.179 1.34 1.34 0 0 1-.523-.51 1.4 1.4 0 0 1-.191-.715 1.281 1.281 0 0 1 .357-.919 1.4 1.4 0 0 1 1.085-.459 1.6 1.6 0 0 1 .651.128 1.217 1.217 0 0 1 .5.357" class="cls-1" data-name="Path 1155" transform="translate(-94.819 -116.202)"/>
        <path id="Path_1156" d="M124.234 133.6h.523l1.034 2.654h-.549l-.2-.549h-1.1l-.217.549h-.525zm.255.7l-.357.919h.715z" class="cls-1" data-name="Path 1156" transform="translate(-115.582 -116.551)"/>
        <path id="Path_1157" d="M148.278 133.685l-.357.357a1.061 1.061 0 0 0-.791-.357.936.936 0 0 0-.664.255.894.894 0 0 0 .013 1.289.933.933 0 0 0 .689.268.831.831 0 0 0 .447-.115.787.787 0 0 0 .293-.345h-.778v-.472h1.353v.115a1.361 1.361 0 0 1-.179.664 1.267 1.267 0 0 1-1.149.638 1.548 1.548 0 0 1-.74-.179 1.34 1.34 0 0 1-.523-.51 1.4 1.4 0 0 1-.191-.715 1.281 1.281 0 0 1 .357-.919 1.4 1.4 0 0 1 1.085-.459 1.6 1.6 0 0 1 .651.128 1.275 1.275 0 0 1 .485.357" class="cls-1" data-name="Path 1157" transform="translate(-135.21 -116.202)"/>
        <path id="Rectangle_395" d="M0 0h.51v2.654H0z" class="cls-1" data-name="Rectangle 395" transform="translate(13.693 17.049)"/>
        <path id="Path_1158" d="M179.2 133.6h.5l1.136 1.748V133.6h.51v2.654h-.485l-1.148-1.748v1.748h-.51z" class="cls-1" data-name="Path 1158" transform="translate(-164.435 -116.551)"/>
        <path id="Path_1159" d="M202.578 133.685l-.357.357a1.061 1.061 0 0 0-.791-.357.936.936 0 0 0-.664.255.894.894 0 0 0 .013 1.289.933.933 0 0 0 .689.268.831.831 0 0 0 .447-.115.787.787 0 0 0 .293-.345h-.778v-.472h1.353v.115a1.361 1.361 0 0 1-.179.664 1.267 1.267 0 0 1-1.148.638 1.549 1.549 0 0 1-.74-.179 1.34 1.34 0 0 1-.523-.51 1.4 1.4 0 0 1-.191-.715 1.281 1.281 0 0 1 .357-.919 1.4 1.4 0 0 1 1.085-.459 1.6 1.6 0 0 1 .651.128 1.275 1.275 0 0 1 .485.357" class="cls-1" data-name="Path 1159" transform="translate(-182.581 -116.202)"/>
        <path id="Path_1160" d="M232.934 133.6h.523l1.034 2.654h-.536l-.2-.549h-1.1l-.217.549h-.538zm.255.7l-.357.919h.715z" class="cls-1" data-name="Path 1160" transform="translate(-210.41 -116.551)"/>
        <path id="Path_1161" d="M255.013 133.6h.51v1.723a.926.926 0 0 0 .038.319.3.3 0 0 0 .128.153.391.391 0 0 0 .217.051.441.441 0 0 0 .23-.064.325.325 0 0 0 .14-.153 1.092 1.092 0 0 0 .038-.357v-1.659h.51v1.587a1.91 1.91 0 0 1-.051.561.767.767 0 0 1-.179.306.8.8 0 0 1-.294.217.955.955 0 0 1-.4.064.979.979 0 0 1-.51-.128.841.841 0 0 1-.306-.332 1.7 1.7 0 0 1-.089-.676V133.6h.013z" class="cls-1" data-name="Path 1161" transform="translate(-230.562 -116.551)"/>
        <path id="Path_1162" d="M273.9 133.6h.6a2.1 2.1 0 0 1 .868.14 1.121 1.121 0 0 1 .472.472 1.462 1.462 0 0 1 .179.753 1.571 1.571 0 0 1-.1.561 1.275 1.275 0 0 1-.281.434.9.9 0 0 1-.4.23 3.053 3.053 0 0 1-.727.064h-.611zm.51.485v1.672h.242a1.256 1.256 0 0 0 .51-.077.58.58 0 0 0 .255-.268 1.016 1.016 0 0 0 .1-.459.838.838 0 0 0-.242-.651.948.948 0 0 0-.689-.2l-.179-.013z" class="cls-1" data-name="Path 1162" transform="translate(-247.051 -116.551)"/>
        <path id="Rectangle_396" d="M0 0h.51v2.654H0z" class="cls-1" data-name="Rectangle 396" transform="translate(29.427 17.049)"/>
        <path id="Path_1163" d="M302.6 133.6h1.455v.485h-.955v.485h.957v.485h-.957v.7h.957v.5H302.6z" class="cls-1" data-name="Path 1163" transform="translate(-272.088 -116.551)"/>
        <path id="Path_1164" d="M317.8 133.6h.485l1.148 1.748V133.6h.51v2.654h-.5l-1.136-1.748v1.748h-.51z" class="cls-1" data-name="Path 1164" transform="translate(-285.348 -116.551)"/>
        <path id="Path_1165" d="M340.991 133.449l-.357.332a1.1 1.1 0 0 0-.817-.383.927.927 0 0 0-.651.255.858.858 0 0 0-.268.638.958.958 0 0 0 .115.472.8.8 0 0 0 .332.319.958.958 0 0 0 .472.115 1.058 1.058 0 0 0 .408-.077 1.457 1.457 0 0 0 .408-.294l.345.357a1.983 1.983 0 0 1-.561.4 1.523 1.523 0 0 1-.6.115 1.355 1.355 0 0 1-1.416-1.4 1.4 1.4 0 0 1 .179-.7 1.314 1.314 0 0 1 .523-.5 1.476 1.476 0 0 1 .727-.191 1.6 1.6 0 0 1 .638.14 2 2 0 0 1 .523.408" class="cls-1" data-name="Path 1165" transform="translate(-303.32 -115.94)"/>
        <path id="Path_1166" d="M362.2 133.6h1.467v.485h-.957v.485h.957v.485h-.957v.7h.957v.5H362.2z" class="cls-1" data-name="Path 1166" transform="translate(-324.083 -116.551)"/>
        <path id="Path_1167" d="M377.059 133.347l-.383.332a.55.55 0 0 0-.408-.281.235.235 0 0 0-.166.051.176.176 0 0 0-.064.115.183.183 0 0 0 .051.128 3.921 3.921 0 0 0 .37.345c.191.166.319.268.357.306a1.014 1.014 0 0 1 .217.294.771.771 0 0 1 .064.306.7.7 0 0 1-.23.536.842.842 0 0 1-.6.217.91.91 0 0 1-.5-.14 1.15 1.15 0 0 1-.37-.434l.434-.255c.128.23.281.357.447.357a.3.3 0 0 0 .217-.077.223.223 0 0 0 .089-.179.339.339 0 0 0-.064-.179 2.141 2.141 0 0 0-.293-.281 2.819 2.819 0 0 1-.561-.549.654.654 0 0 1-.128-.383.632.632 0 0 1 .217-.472.766.766 0 0 1 .523-.2.84.84 0 0 1 .383.089 1.635 1.635 0 0 1 .4.357" class="cls-1" data-name="Path 1167" transform="translate(-335.598 -115.94)"/>
        <path id="Path_1168" d="M399.7 133.6h.281l.549 1.914.766-1.914h.051l.766 1.914.561-1.914h.268l-.766 2.654h-.051l-.8-2.016-.8 2.016h-.051z" class="cls-1" data-name="Path 1168" transform="translate(-356.797 -116.551)"/>
        <path id="Rectangle_397" d="M0 0h.268v2.654H0z" class="cls-1" data-name="Rectangle 397" transform="translate(46.604 17.049)"/>
        <path id="Path_1169" d="M433.5 133.855v-.255h1.467v.255h-.6v2.4h-.267v-2.4z" class="cls-1" data-name="Path 1169" transform="translate(-386.284 -116.551)"/>
        <path id="Path_1170" d="M448 133.6h.268v1.11h1.365v-1.11h.268v2.654h-.268v-1.289h-1.365v1.289H448z" class="cls-1" data-name="Path 1170" transform="translate(-398.933 -116.551)"/>
        <path id="Path_1171" d="M476.1 133.6h.536a3.35 3.35 0 0 1 .625.038.659.659 0 0 1 .37.23.635.635 0 0 1 .14.434.638.638 0 0 1-.536.664 3.933 3.933 0 0 1-.676.038h-.191v1.238h-.268zm.268.255v.906h.459a1.132 1.132 0 0 0 .408-.051.438.438 0 0 0 .2-.166.422.422 0 0 0 0-.485.369.369 0 0 0-.191-.153 1.277 1.277 0 0 0-.4-.051z" class="cls-1" data-name="Path 1171" transform="translate(-423.448 -116.551)"/>
        <path id="Path_1172" d="M492.927 133.6l1.251 2.654h-.294l-.421-.88h-1.149l-.421.88h-.293l1.263-2.654zm-.038.562l-.459.957h.919z" class="cls-1" data-name="Path 1172" transform="translate(-436.97 -116.551)"/>
        <path id="Path_1173" d="M512.9 135.233l.23-.14c.166.293.345.434.561.434a.581.581 0 0 0 .255-.064.452.452 0 0 0 .179-.166.43.43 0 0 0 .064-.217.449.449 0 0 0-.089-.268 2.605 2.605 0 0 0-.459-.421 3.221 3.221 0 0 1-.421-.357.688.688 0 0 1-.14-.408.576.576 0 0 1 .089-.319.788.788 0 0 1 .23-.23.744.744 0 0 1 .332-.077.708.708 0 0 1 .357.089 1.1 1.1 0 0 1 .345.345l-.217.166a1.775 1.775 0 0 0-.255-.268.52.52 0 0 0-.23-.064.412.412 0 0 0-.268.1.327.327 0 0 0-.1.242.353.353 0 0 0 .038.166.676.676 0 0 0 .128.179 4.263 4.263 0 0 0 .345.268 1.618 1.618 0 0 1 .472.459.679.679 0 0 1-.089.893.775.775 0 0 1-.536.217.791.791 0 0 1-.447-.128 1.058 1.058 0 0 1-.37-.434" class="cls-1" data-name="Path 1173" transform="translate(-455.552 -116.028)"/>
        <path id="Path_1174" d="M527.4 135.233l.23-.14c.166.293.345.434.561.434a.58.58 0 0 0 .255-.064.451.451 0 0 0 .179-.166.43.43 0 0 0 .064-.217.45.45 0 0 0-.089-.268 2.614 2.614 0 0 0-.459-.421 3.211 3.211 0 0 1-.421-.357.687.687 0 0 1-.14-.408.577.577 0 0 1 .089-.319.789.789 0 0 1 .23-.23.744.744 0 0 1 .332-.077.707.707 0 0 1 .357.089 1.1 1.1 0 0 1 .345.345l-.217.166a1.781 1.781 0 0 0-.255-.268.52.52 0 0 0-.23-.064.412.412 0 0 0-.268.1.327.327 0 0 0-.1.242.353.353 0 0 0 .038.166.672.672 0 0 0 .128.179 4.239 4.239 0 0 0 .345.268 1.618 1.618 0 0 1 .472.459.678.678 0 0 1-.089.893.774.774 0 0 1-.536.217.791.791 0 0 1-.447-.128 1.289 1.289 0 0 1-.37-.434" class="cls-1" data-name="Path 1174" transform="translate(-468.201 -116.028)"/>
        <path id="Rectangle_398" d="M0 0h.268v2.654H0z" class="cls-1" data-name="Rectangle 398" transform="translate(61.304 17.049)"/>
        <path id="Path_1175" d="M551.291 133a1.416 1.416 0 0 1 1.021.408 1.357 1.357 0 0 1 .408 1 1.4 1.4 0 0 1-.408 1 1.357 1.357 0 0 1-1 .408 1.408 1.408 0 0 1-1.008-.408 1.349 1.349 0 0 1-.408-.983 1.412 1.412 0 0 1 .7-1.225 1.274 1.274 0 0 1 .689-.191m.013.268a1.093 1.093 0 0 0-.561.153 1.174 1.174 0 0 0-.421.408 1.138 1.138 0 0 0-.153.574 1.133 1.133 0 0 0 1.136 1.136 1.139 1.139 0 0 0 .574-.153 1.047 1.047 0 0 0 .408-.408 1.139 1.139 0 0 0 .153-.574 1.105 1.105 0 0 0-.153-.574 1.176 1.176 0 0 0-.421-.408 1.128 1.128 0 0 0-.562-.153" class="cls-1" data-name="Path 1175" transform="translate(-487.83 -116.028)"/>
        <path id="Path_1176" d="M576.2 136.254V133.6h.051l1.787 2.029V133.6h.268v2.654h-.064l-1.761-2.016v2.016z" class="cls-1" data-name="Path 1176" transform="translate(-510.774 -116.551)"/>
    </g>
</svg>
