<svg xmlns="http://www.w3.org/2000/svg" viewBox="0 0 88.949 40.003">
  <defs>
    <style>
      .cls-1 {
        fill: #bcbcbc;
      }

      .cls-2 {
        fill: #848385;
      }
    </style>
  </defs>
  <g id="Group_1665" data-name="Group 1665" transform="translate(-331.525 -768)">
    <path id="Union_12" data-name="Union 12" class="cls-1" d="M13696,6067.333c0-.016,0-.032,0-.048-.045-.775-.511-10.645,4.445-10.621,1.256,0,6.354,0,13.422-.018a134.941,134.941,0,0,1,52.875-.062c7.2.007,12.42.031,13.7.08,4.845.184,4.51,9.324,4.443,10.537,0,.044,0,.088,0,.132,0,7.362-19.9,13.334-44.444,13.334S13696,6074.7,13696,6067.333Z" transform="translate(-13364.443 -5272.665)"/>
    <g id="Group_1660" data-name="Group 1660" transform="translate(85.002 -19)">
      <path id="Union_12-2" data-name="Union 12" class="cls-2" d="M13696,6066v-9.331h14.848a119.846,119.846,0,0,1,50.308,0h14.737l.1,9.014c.009.1.014.211.014.317,0,6.625-17.909,12-40,12S13696,6072.626,13696,6066Z" transform="translate(-13445 -5258)"/>
      <ellipse id="Ellipse_116" data-name="Ellipse 116" class="cls-1" cx="40" cy="12" rx="40" ry="12" transform="translate(251 787)"/>
    </g>
  </g>
</svg>
