<svg xmlns="http://www.w3.org/2000/svg" viewBox="0 0 127.85 44.711">
    <defs>
        <style>
            .cls-1{fill:#fff}
        </style>
    </defs>
    <g id="_3a2ilati-logo" data-name="3a2ilati-logo">
        <path id="Path_33" d="M88.139 19.558a4.2 4.2 0 0 1-3.812 3.813A1.933 1.933 0 0 1 82.42 21.4a4.087 4.087 0 0 1 3.813-3.693 1.906 1.906 0 0 1 1.906 1.851zm52.371 0a4.2 4.2 0 0 1-3.813 3.813 1.934 1.934 0 0 1-1.907-1.971 4.087 4.087 0 0 1 3.813-3.693 1.906 1.906 0 0 1 1.907 1.851zM32.141 35.772c0 6.077-5.6 11.319-12.094 11.319-4.409 0-7.388-2.621-7.388-6.493 0-2.86 1.847-5.422 3.873-5.422a1.767 1.767 0 0 1 1.907 1.668 3.1 3.1 0 0 1-.477 1.489l-.417.656a3.179 3.179 0 0 0-.715 1.911c0 1.728 1.669 2.978 3.992 2.978 3.991 0 7.566-3.932 7.566-8.222 0-2.622-1.549-4.588-3.635-4.588a5.578 5.578 0 0 0-1.43.3 5.363 5.363 0 0 1-1.728.357c-1.31 0-2.323-.774-2.323-1.847 0-1.43 1.312-2.323 3.636-2.323a12.352 12.352 0 0 1 2.442.3c3.218-.952 5.72-3.813 5.72-6.434a3.471 3.471 0 0 0-3.635-3.634c-1.966 0-3.157 1.072-3.753 3.4-.3 1.25-1.012 1.906-2.026 1.906a1.886 1.886 0 0 1-1.847-1.966c0-3.277 3.992-6.436 8.163-6.436a6.446 6.446 0 0 1 6.672 6.674c0 3.336-2.025 6.2-5.719 8.161 2.2 1.253 3.217 3.278 3.217 6.257zm7.209 11.022c-2.682 0-4.588-2.383-4.588-5.78 0-7.625 7.447-15.073 15.015-15.073 2.858 0 4.885 1.073 4.885 2.622a1.877 1.877 0 0 1-2.085 1.788 4.459 4.459 0 0 1-1.609-.3 10.664 10.664 0 0 0-2.86-.416 8.283 8.283 0 0 0-6.136 2.741c-2.263 2.443-3.753 5.6-3.753 8.042 0 1.847 1.012 3.038 2.5 3.038a5.373 5.373 0 0 0 3.814-2.2 15.494 15.494 0 0 0 2.567-5.127c.835-2.263 1.131-2.74 1.906-3.276a6.632 6.632 0 0 1 2.2-1.132.563.563 0 0 1 .6.6 3.767 3.767 0 0 1-.417 1.311l-2.264 6.255a8.785 8.785 0 0 0-.537 2.145.8.8 0 0 0 .835.893 1.632 1.632 0 0 0 .536-.06l.775-.3a2.238 2.238 0 0 1 .537-.12.6.6 0 0 1 .655.655c0 .537-.3.895-1.788 1.907-1.608 1.192-2.681 1.728-3.4 1.728-1.072 0-1.49-.655-1.668-2.562-2.027 1.848-3.695 2.623-5.721 2.623z" class="cls-1" data-name="Path 33" transform="translate(-12.66 -13.132)"/>
        <path id="Path_34" d="M71.408 43.575c1.37 0 1.966-.6 2.74-2.8.477-1.37 1.073-1.907 2.085-1.907a2 2 0 0 1 1.906 2.205c0 2.919-3.157 5.838-6.316 5.838-1.549 0-2.561-.3-5.243-1.49a27.276 27.276 0 0 0-3.157-1.31l-.477.357c-2.263 1.549-3.1 1.966-4.23 1.966a2.331 2.331 0 0 1-2.616-2.263c0-1.966 2.025-3.576 4.587-3.576a11.582 11.582 0 0 1 1.847.12 75.472 75.472 0 0 0 10.308-10.9c2.323-3.1 3.515-5.659 3.515-7.566a3.716 3.716 0 0 0-3.992-3.694c-2.562 0-4.29 1.847-4.29 4.708a8.56 8.56 0 0 0 .119 1.549 6.9 6.9 0 0 1 .059 1.072 1.96 1.96 0 0 1-1.966 2.026c-1.49 0-2.621-1.728-2.621-4.051a8.871 8.871 0 0 1 9.116-8.639c4.409 0 7.506 2.919 7.506 7.089 0 4.647-4.23 10.605-13.227 18.707l-.894.776a16.976 16.976 0 0 0 5.246 1.787zm14.358-11.8a6.576 6.576 0 0 0 .477-1.847.613.613 0 0 0-.656-.6 2.647 2.647 0 0 0-.655.06 2.082 2.082 0 0 1-.715.178.587.587 0 0 1-.537-.595c0-.715.774-1.43 2.2-2.2a7.182 7.182 0 0 1 3.22-1.01 1.42 1.42 0 0 1 1.609 1.37c0 .6-.179 1.191-1.668 5.362l-1.371 3.813-1.192 3.157a9.151 9.151 0 0 0-.715 2.8c0 .477.239.775.656.775a1.662 1.662 0 0 0 .775-.178 3.2 3.2 0 0 1 .775-.179.487.487 0 0 1 .477.537c0 .537-.537 1.192-1.787 2.025a7 7 0 0 1-3.573 1.257 1.743 1.743 0 0 1-1.728-1.908 4.688 4.688 0 0 1 .357-1.668l4.05-11.141zm12.69 12.987a6.472 6.472 0 0 1-3.4 1.49c-1.668 0-2.741-1.43-2.741-3.516 0-3.4 2.8-12.451 6.076-19.481 3.039-6.555 7.269-10.308 11.677-10.308 1.49 0 2.443.716 2.443 1.788 0 .954-.953 1.728-2.324 1.788l-1.013.059c-3.039.178-5.183 2.5-8.1 8.818a69.674 69.674 0 0 0-4.286 11.8 15.924 15.924 0 0 0-.834 4.17c0 .954.357 1.49 1.132 1.49a3.113 3.113 0 0 0 1.43-.477c1.012-.656 1.012-.656 1.31-.656a.652.652 0 0 1 .655.6c.001.592-.713 1.486-2.025 2.438z" class="cls-1" data-name="Path 34" transform="translate(-17.19 -12.952)"/>
        <path id="Path_35" d="M111.836 47.494c-2.681 0-4.588-2.383-4.588-5.78 0-7.625 7.447-15.073 15.014-15.073 2.86 0 4.886 1.073 4.886 2.622a1.878 1.878 0 0 1-2.086 1.788 4.457 4.457 0 0 1-1.609-.3 10.664 10.664 0 0 0-2.86-.417 8.285 8.285 0 0 0-6.136 2.741c-2.264 2.443-3.753 5.6-3.753 8.042 0 1.847 1.013 3.038 2.5 3.038a5.373 5.373 0 0 0 3.812-2.2 15.512 15.512 0 0 0 2.562-5.123c.834-2.263 1.132-2.74 1.906-3.276a6.649 6.649 0 0 1 2.2-1.132.563.563 0 0 1 .6.6 3.767 3.767 0 0 1-.416 1.311l-2.268 6.248a8.812 8.812 0 0 0-.536 2.145.8.8 0 0 0 .834.893 1.635 1.635 0 0 0 .536-.06l.775-.3a2.25 2.25 0 0 1 .536-.12.6.6 0 0 1 .656.655c0 .537-.3.895-1.787 1.907-1.609 1.192-2.681 1.728-3.4 1.728-1.072 0-1.49-.655-1.669-2.562-2.023 1.848-3.692 2.623-5.717 2.623zm24.547-20.375a7.7 7.7 0 0 0 1.967-.238 5.924 5.924 0 0 1 1.012-.179 1.364 1.364 0 0 1 1.37 1.43c0 1.131-.895 1.906-2.264 1.906a11.24 11.24 0 0 1-1.25-.059h-2.025l-3.456 10.068a8.713 8.713 0 0 0-.6 2.383 1.176 1.176 0 0 0 1.251 1.31 3.807 3.807 0 0 0 1.907-.655 2.316 2.316 0 0 1 1.132-.417.672.672 0 0 1 .716.6c0 .536-.6 1.37-1.61 2.2a7.433 7.433 0 0 1-4.35 1.789 2.831 2.831 0 0 1-2.979-3.039 5.982 5.982 0 0 1 .3-1.847l4.349-12.391a4.839 4.839 0 0 0-.834-.06h-.477c-.893 0-1.251-.3-1.251-.954a1.241 1.241 0 0 1 .835-1.191l.953-.537a8.12 8.12 0 0 0 3.1-3.455c1.013-1.847 1.609-2.384 2.5-2.384a.9.9 0 0 1 1.013.954 3.3 3.3 0 0 1-.3 1.31l-.536 1.549c-.12.417-.3.835-.417 1.31l-.239.6h.179zm7.09 5.541a6.629 6.629 0 0 0 .476-1.847.613.613 0 0 0-.656-.6 2.647 2.647 0 0 0-.655.06 2.081 2.081 0 0 1-.716.178.587.587 0 0 1-.537-.595c0-.715.775-1.43 2.205-2.2a7.185 7.185 0 0 1 3.218-1.013 1.42 1.42 0 0 1 1.608 1.37c0 .6-.178 1.191-1.668 5.362l-1.37 3.813-1.191 3.157a9.123 9.123 0 0 0-.715 2.8c0 .477.238.775.654.775a1.662 1.662 0 0 0 .775-.178 3.186 3.186 0 0 1 .774-.179.488.488 0 0 1 .477.537c0 .537-.537 1.192-1.788 2.025a7 7 0 0 1-3.574 1.251 1.742 1.742 0 0 1-1.729-1.908 4.688 4.688 0 0 1 .357-1.668l4.052-11.141z" class="cls-1" data-name="Path 35" transform="translate(-22.526 -13.833)"/>
        <g id="Group_174" data-name="Group 174" transform="translate(94.977 36.554)">
            <path id="Path_38" d="M119.548 62.007a.834.834 0 0 1-.851-.9 1.333 1.333 0 0 1 1.194-1.4.851.851 0 0 1 .873.941 1.336 1.336 0 0 1-1.216 1.359z" class="cls-1" data-name="Path 38" transform="translate(-118.697 -54.383)"/>
            <path id="Path_40" d="M126.479 61.9a2.226 2.226 0 0 1-2.136-2.5 6.738 6.738 0 0 1 1.332-3.608 4.41 4.41 0 0 1 3.584-2.021c.85 0 1.516.414 1.516.966a.769.769 0 0 1-.8.712 1.343 1.343 0 0 1-.528-.138 1.857 1.857 0 0 0-.735-.16 2.321 2.321 0 0 0-1.723.941 5.424 5.424 0 0 0-1.286 3.193c0 .758.391 1.287.988 1.287A1.689 1.689 0 0 0 128 59.63l.184-.3a.632.632 0 0 1 .552-.369.568.568 0 0 1 .574.622c0 1.1-1.493 2.319-2.825 2.319zm8.753-8.041c1.035 0 1.747.413 1.747.988a.672.672 0 0 1-.666.689 2.123 2.123 0 0 1-.851-.229 1.833 1.833 0 0 0-.711-.138c-1.493 0-2.964 1.953-2.964 3.929 0 .965.482 1.609 1.241 1.609 1.124 0 2.182-1.356 2.182-2.827a2.909 2.909 0 0 0-.161-.872l-.137-.367a.822.822 0 0 1-.069-.253.559.559 0 0 1 .551-.552c.62 0 1.058.782 1.058 1.906a3.875 3.875 0 0 1-3.562 4.113 2.389 2.389 0 0 1-2.366-2.688c0-2.757 2.251-5.307 4.71-5.307zm7.443 0c.735 0 1.148.413 1.217 1.241a3.25 3.25 0 0 1 2.435-1.217c1.08 0 1.747.758 1.747 2.045a7.869 7.869 0 0 1-2.022 4.824 3.6 3.6 0 0 1-2.044 1.148.672.672 0 0 1-.69-.666c0-.391.137-.528.941-.918a4.741 4.741 0 0 0 2.458-4.044c0-.666-.3-1.079-.8-1.079-.874 0-1.655.85-2.412 2.71l-.551 1.334a6.523 6.523 0 0 1-1.288 2.3 1.186 1.186 0 0 1-.688.391c-.253 0-.369-.116-.369-.346a1.286 1.286 0 0 1 .161-.551c.482-.942.782-1.631 1.447-3.262a5.937 5.937 0 0 0 .575-1.885.624.624 0 0 0-.62-.69 1.885 1.885 0 0 0-1.4.8 6.542 6.542 0 0 0-.941 1.791c-.139.368-.3.736-.46 1.148-.8 1.954-1.539 2.987-2.136 2.987a.37.37 0 0 1-.368-.391 1.131 1.131 0 0 1 .162-.483 23.312 23.312 0 0 0 1.378-3.125 12.549 12.549 0 0 0 .8-2.457c0-.185-.092-.253-.229-.253a.748.748 0 0 0-.345.069 1.014 1.014 0 0 1-.23.047.21.21 0 0 1-.184-.23c0-.23.276-.528.942-.9a2.424 2.424 0 0 1 1.126-.391.5.5 0 0 1 .551.5c0 .069-.022.116-.047.368a3.052 3.052 0 0 1 1.885-.825z" class="cls-1" data-name="Path 40" transform="translate(-119.286 -53.763)"/>
        </g>
    </g>
</svg>
