<svg xmlns="http://www.w3.org/2000/svg" viewBox="0 0 247.32 81.397">
    <defs>
        <style>
            .cls-1{fill:#fff}
        </style>
    </defs>
    <g id="aty-logo" transform="translate(-987.533 -4254)">
        <path id="Subtraction_1" d="M40.7 81.4a40.5 40.5 0 0 1-22.756-6.951A40.811 40.811 0 0 1 3.2 56.541a40.651 40.651 0 0 1 3.752-38.6A40.817 40.817 0 0 1 24.857 3.2a40.65 40.65 0 0 1 38.6 3.752A40.809 40.809 0 0 1 78.2 24.856a40.645 40.645 0 0 1-3.752 38.6A40.826 40.826 0 0 1 56.541 78.2 40.441 40.441 0 0 1 40.7 81.4zM17.015 40.143c.5.5 1.036.953 1.554 1.389.492.414 1.05.883 1.559 1.391v16.238c.2.26.405.574.621.906a6.876 6.876 0 0 0 2.49 2.648 24.446 24.446 0 0 0 7.475 2.6 48.87 48.87 0 0 0 9.36.865 48.279 48.279 0 0 0 12.6-1.568c4.013-1.107 7.025-2.726 8.711-4.682.091-2.423.05-4.984.01-7.461a95.509 95.509 0 0 1 .211-10.548 2.509 2.509 0 0 1 1.8-1.092 14.644 14.644 0 0 1 3.117-.248c.7 0 1.449.02 2.174.038H68.8c.763.021 1.55.041 2.306.041 2.09 0 4.364-.144 5.387-1.209a2.153 2.153 0 0 0 .57-1.65c0-.636-.518-1.127-1.542-1.458a12.045 12.045 0 0 0-3.541-.434 20.411 20.411 0 0 0-4.809.557c-.452.119-.86.247-1.219.36a8.437 8.437 0 0 1-2.58.523 5.852 5.852 0 0 1-1.872-.319c.247-3.6-.483-6.308-2.235-8.293-1.468-1.665-3.684-2.823-6.775-3.541a56.394 56.394 0 0 0-9.23-1.066 3.291 3.291 0 0 0-.632-2.625 2.235 2.235 0 0 0-1.7-.734 2.817 2.817 0 0 0-2.079.954 3.2 3.2 0 0 0-.708 2.629 42.787 42.787 0 0 1-5.411.8h-.024a54.116 54.116 0 0 0-7.688 1.215c-2.651.715-4.177 1.726-4.668 3.094a7.468 7.468 0 0 0-.276 3.589 19.431 19.431 0 0 1 .053 3.084c-.361.035-.707.052-1.059.052a17.25 17.25 0 0 1-2.742-.275h-.01c-.75-.116-1.6-.248-2.638-.331a22.729 22.729 0 0 0-2.641-.163 10.528 10.528 0 0 0-3.217.4c-.984.327-1.519.845-1.592 1.538a1.589 1.589 0 0 0 .344 1.349c1.1 1.3 4.41 1.467 7.171 1.467.648 0 1.292-.011 1.86-.02h.119c.467-.004.907-.01 1.293-.01zM41.8 64.387a44.779 44.779 0 0 1-16.56-2.89c.117-.693.594-.937 1.1-1.2a2.25 2.25 0 0 0 1.235-1.138 3.991 3.991 0 0 0-2.759 1.3c-.175.15-.373.321-.576.479-.174-.142-.357-.275-.55-.418l-.025-.019c-1.152-.845-2.458-1.8-1.984-4.457.452-.239.931-.469 1.394-.692a12.068 12.068 0 0 0 4.055-2.644 2.737 2.737 0 0 0-.284-.014 6.556 6.556 0 0 0-3.332 1.4h-.007a5.63 5.63 0 0 1-1.825.942v-3.88a16.646 16.646 0 0 1 1.9-1.221l.016-.009a16.683 16.683 0 0 0 3.982-2.886c-1.867 0-3.419 1.229-4.666 2.216a11.728 11.728 0 0 1-1.228.9v-4.339c3.39-1.25 4.734-2.5 5.449-3.337-2.611.583-4.286 1.492-5.115 2.781a4.317 4.317 0 0 1-.182-2.022v-.007a9.277 9.277 0 0 0-.041-1.865l.394-.194a9.138 9.138 0 0 0 3.943-2.92 1.185 1.185 0 0 0-.216-.019 4.705 4.705 0 0 0-2.233 1.055 8.972 8.972 0 0 1-1.88 1.069c-.126-1.469.751-1.956 1.6-2.426a2.724 2.724 0 0 0 1.515-1.467.8.8 0 0 0-.326-.071 2.1 2.1 0 0 0-1.162.617 2.724 2.724 0 0 1-1.627.789v-4.884a22.009 22.009 0 0 0 8.219 3.476 46.975 46.975 0 0 0 10.466 1.083 60.48 60.48 0 0 0 10.947-1.005 39.371 39.371 0 0 0 9.17-2.776v26.024c-4.037 2.966-10.891 4.669-18.807 4.669zM27.02 57.6c-.3.116-.613.219-.89.311-1.145.383-2.226.743-2.666 1.8a2.144 2.144 0 0 0 .38.031A3.84 3.84 0 0 0 27.02 57.6zm-.444-2.558c-.308.154-.66.306-1.031.467l-.037.016c-1.511.653-3.224 1.392-3.049 2.632.268-.156.566-.313.855-.466a7.1 7.1 0 0 0 3.262-2.649zm.222-5.337a7.093 7.093 0 0 1-1.675 1.068h-.006a8.829 8.829 0 0 0-1.887 1.2 2.136 2.136 0 0 0-.768 1.849 7.019 7.019 0 0 1 2.218-1.734c1.259-.758 2.443-1.473 2.119-2.383zm0-4.672c-1.916.6-3.808 1.392-4.671 3.113a8.145 8.145 0 0 0 4.673-3.112zm-.225-4.558c-1.733.433-4.328 1.754-4.672 3.336a16.327 16.327 0 0 1 1.448-.8 6.965 6.965 0 0 0 3.224-2.538zm-6.447.449a2.94 2.94 0 0 0-1.547-1.324 6.364 6.364 0 0 1-.788-.451v-1.338h.009a3.356 3.356 0 0 0 .846-.137h.005a3.669 3.669 0 0 1 .925-.145 2.5 2.5 0 0 1 .554.062c0 .988 0 2.108-.781 2.331a.634.634 0 0 0 .29.12c.289.073.647.165.491.879zm41.479-.447v-2.333a10.312 10.312 0 0 0 2.147.3 2.915 2.915 0 0 0 1.412-.3c.207 1.449-.9 1.611-1.981 1.769a2.447 2.447 0 0 0-1.577.565zm8.936-1.014a12.807 12.807 0 0 1-4.157-.658c-.092-.091-.05-.279-.009-.46s.079-.363 0-.462a.25.25 0 0 0-.21-.077c.586-.044 1.216-.113 1.883-.184l.063-.006h.016a40.083 40.083 0 0 1 4.217-.306 8.737 8.737 0 0 1 3.272.5c-.821 1.052-2.67 1.655-5.074 1.655zm-56.36-.531c-2.248 0-4.8-.087-6.62-1.123.833-.957 2.448-1.086 3.918-1.086.641 0 1.319.03 1.973.058h.09c.647.028 1.318.056 1.956.056.4 0 .746-.011 1.069-.034v2.117h-.1c-.385 0-.773 0-1.067.006-.356.004-.8.008-1.218.008zm25.326-2.356a38.2 38.2 0 0 1-11.361-1.455c-3.6-1.142-6-2.932-7.132-5.32 3.246-2.367 8.29-3.076 13.168-3.76 1.206-.17 2.574-.36 3.848-.577.639.184.6 1.262.569 2.212-.007.18-.013.384-.013.569a3.911 3.911 0 0 0 4.116 0c.389-.278.389-.992.389-1.682s0-1.321.389-1.432c.441-.026.885-.038 1.325-.038a30.449 30.449 0 0 1 9.017 1.6 18.769 18.769 0 0 1 4.2 1.848c1.586 1.041 2.269 2.254 2.028 3.6v-.005c-.1.685-1.015 1.35-2.724 1.974a29.408 29.408 0 0 1-4.392 1.143 71.508 71.508 0 0 1-13.426 1.325zm2.306-9h-1.555l-.033-.178c-.334-1.767-.712-3.772.253-5.492a1.323 1.323 0 0 1 1.027.41c.7.769.534 2.5.4 3.9v.023c-.047.5-.091.966-.091 1.338z" class="cls-1" data-name="Subtraction 1" transform="translate(1153.454 4254)"/>
        <g id="Group_488" data-name="Group 488" transform="translate(987.532 4270.609)">
            <path id="XMLID_8_" d="M19.161 366.078a2.094 2.094 0 0 0-.668-1.668 2.455 2.455 0 0 0-1.668-.668 2.162 2.162 0 0 0-2.336 2.336 2.1 2.1 0 0 0 .668 1.668 2.455 2.455 0 0 0 1.668.667 2.11 2.11 0 0 0 2.336-2.335z" class="cls-1" transform="translate(-14.48 -342.614)"/>
            <g id="Group_487" data-name="Group 487" transform="translate(1.899)">
                <path id="XMLID_17_" d="M295.538 414.992a2.291 2.291 0 0 0-2.557 2.558 2.1 2.1 0 0 0 .667 1.668 2.455 2.455 0 0 0 1.668.668 2.392 2.392 0 0 0 2.558-2.557 2.281 2.281 0 0 0-2.335-2.336z" class="cls-1" transform="translate(-175.218 -371.845)"/>
                <path id="XMLID_16_" d="M308.991 414.985a2.291 2.291 0 0 0-2.558 2.558 2.1 2.1 0 0 0 .667 1.668 2.455 2.455 0 0 0 1.668.668 2.392 2.392 0 0 0 2.557-2.557 2.281 2.281 0 0 0-2.335-2.336z" class="cls-1" transform="translate(-182.888 -371.838)"/>
                <path id="XMLID_47_" d="M259.923 349.4c-2.112 0-4.893 1.668-8.563 5.115a13.712 13.712 0 0 0 .223-2.78l-.668-14.344-4.116-3.669.223 1.334c1.444 11.565 2.113 17.9 2.113 19.238a8.232 8.232 0 0 1-2.336 4.893l-1.444 1.444.445 3.447h-.668a2.812 2.812 0 0 1-2.558-1.112c-.444-.668-.667-1.112-.889-1.444a19.464 19.464 0 0 1-.445-4.67c0-1.112.222-3.225.445-6.45v-.223l-3.669-3.225v.89c0 1.334 0 3 .222 5.561s.223 4.225.223 5.561c0 1.668-.89 3-2.558 4.225a6.267 6.267 0 0 1-3 1.112 4.959 4.959 0 0 1-3.669-1.668l2.335-5.338-1.112.445a78.234 78.234 0 0 1-13.01 4.67 52.389 52.389 0 0 1-13.678 1.891c-4.449 0-7.9-.667-10.453-2.113-1.89-1.112-3-2.112-3-3 0-.445.445-1.444 3.669-3.893l.222-.223v-3.894l-.667.667c-3.447 2.78-5.115 5.782-5.115 8.785 0 5.115 4.67 7.9 13.9 7.9h1.668a3.049 3.049 0 0 0-.222 1.444 4.3 4.3 0 0 0 .889 2.336 3.093 3.093 0 0 0 2.336.89 2.881 2.881 0 0 0 3.225-3.225 2.63 2.63 0 0 0-.89-2.112h.223a57.3 57.3 0 0 0 8.34-2.113 84.868 84.868 0 0 0 9.229-3.447 4.237 4.237 0 0 0 .667 2.113 6.427 6.427 0 0 0 1.891 2.558 3.539 3.539 0 0 0 2.335 1.112h1.335a7.077 7.077 0 0 0 4.448-2.558c.445-.667.89-1.334 1.334-2.112a8.828 8.828 0 0 0 1.668 2.78 4.631 4.631 0 0 0 3.669 1.89h3.448a16.192 16.192 0 0 0 11.787-4.448 12.713 12.713 0 0 0 4.448-9.564c-.004-3.783-2.338-4.676-4.23-4.676zm-1.112 2.335a6.679 6.679 0 0 1 2.336 4.671 14.561 14.561 0 0 1-.445 2.112c-2.336 3.669-6.45 5.561-12.01 5.561h-1.668a77.4 77.4 0 0 1 5.338-6.451c2.556-2.446 4.781-4.559 6.45-5.894z" class="cls-1" transform="translate(-115.585 -325.495)"/>
                <path id="XMLID_13_" d="M368.389 344.9l-4.116-3.669 1.668 19.683c.222 4.893.222 6.672 0 7.228a6.68 6.68 0 0 1-4.449 3.447l-.445.222 1.669 3.447.444-.223a16.014 16.014 0 0 0 3.669-3c1.444-2.336 2.112-6.227 2.112-11.565 0-4.116 0-6.006-.222-9.785a28.827 28.827 0 0 1-.331-5.782z" class="cls-1" transform="translate(-214.041 -329.775)"/>
                <path id="XMLID_43_" d="M367.949 320.353c-.445.223-.667.223-1.112.445v-.445a7.789 7.789 0 0 0 0-3.225c-.445-1.668-1.112-2.558-2.335-2.558-.89 0-1.668.667-3 1.891-1.444 1.334-2.113 2.558-2.113 3.893s.889 2.112 2.113 2.78a37.374 37.374 0 0 0-2.78 2.558v3.781l.889-1.112a13.046 13.046 0 0 1 4.225-4.116c1.335-.445 2.336-.668 3-.89h.222l1.444-3.447zm-1.334.334a5.246 5.246 0 0 1-1.668.222 7.183 7.183 0 0 1-2.78-.667 4.994 4.994 0 0 1-1.112-.667 2.217 2.217 0 0 1 1.335-1.668 7.21 7.21 0 0 1 2.557-.668c.223 0 .223 0 .223.445a2.41 2.41 0 0 1-.223 1.112l-.223.223z" class="cls-1" transform="translate(-212.713 -314.57)"/>
                <path id="XMLID_10_" d="M77.13 359.1a2.161 2.161 0 0 0 2.335-2.336 2.1 2.1 0 0 0-.665-1.664 2.455 2.455 0 0 0-1.668-.667 2.162 2.162 0 0 0-2.336 2.335 2.282 2.282 0 0 0 2.334 2.332z" class="cls-1" transform="translate(-50.775 -337.301)"/>
                <path id="XMLID_9_" d="M28.473 368.414a2.161 2.161 0 0 0 2.336-2.336 2.094 2.094 0 0 0-.668-1.668 2.455 2.455 0 0 0-1.668-.668 2.161 2.161 0 0 0-2.335 2.335 2.281 2.281 0 0 0 2.335 2.335z" class="cls-1" transform="translate(-23.023 -342.614)"/>
                <path id="XMLID_7_" d="M106.376 410.849a2.162 2.162 0 0 0-2.336 2.336 2.1 2.1 0 0 0 .668 1.669 2.455 2.455 0 0 0 1.668.667 2.162 2.162 0 0 0 2.335-2.336 2.1 2.1 0 0 0-.667-1.668 2.817 2.817 0 0 0-1.668-.668z" class="cls-1" transform="translate(-67.455 -369.481)"/>
                <path id="XMLID_35_" d="M76.83 357.823c-1.89 0-4.448 1.444-7.9 4.67 0-1.112.222-1.89 0-2.336l-.667-9.785-3.663-3.447.222 1.334c.667 6.006 1.334 9.453 1.444 11.565a27.828 27.828 0 0 1 .445 3 6.387 6.387 0 0 1-2.112 4.448l-1.334 1.334.223 3h-.445a2.553 2.553 0 0 1-2.336-.89 2.393 2.393 0 0 1-.667-1.444 19.924 19.924 0 0 1-.222-4.225c0-1.112.222-3 .444-5.782v-.222l-3.448-3v1.112a50.008 50.008 0 0 0 .222 5.115c0 2.112.223 3.893.223 4.893a5.109 5.109 0 0 1-2.336 3.893 5.89 5.89 0 0 1-2.557.889h-.222c-2.78-.223-3.225-.667-3.225-.667a2.672 2.672 0 0 1-.89-1.891 12.734 12.734 0 0 1 .89-3.224 11.554 11.554 0 0 0 1.112-3.669 6.3 6.3 0 0 0-1.444-4.225 4.864 4.864 0 0 0-4.116-1.89c-1.668 0-3.447.889-5.338 2.336l-1.668 5.561 1.334-1.335c2.557-2.558 4.448-4.225 6.006-4.893.445 0 .89.89 1.334 1.444a5.211 5.211 0 0 1 .444 2.558 9.6 9.6 0 0 1-.888 3.447 10.9 10.9 0 0 0-.89 3.892 5.24 5.24 0 0 0 .445 1.891h-2a36.629 36.629 0 0 0-4.225.445c-5.115-.667-5.561-1.444-5.561-1.444a12.6 12.6 0 0 1-.667-4.671 59.038 59.038 0 0 1 .445-6v-.223l-3.447-2.889v4.781l-1.668-1.891H27.9a17.765 17.765 0 0 0-6.672 5.782c-1.668 2.336-2.335 4.116-2.335 5.561s2.335 1.89 3.225 2.112a23.151 23.151 0 0 0 3.892.445 8 8 0 0 0 3-.445 3.779 3.779 0 0 0 1.334-1.334c.222-.222.222-.444.444-.889a9.719 9.719 0 0 0 2.336 4.225 3.449 3.449 0 0 0 1.668.667v.223h3.89c2.558-.223 4.449-.445 5.561-.445a7.827 7.827 0 0 0 1.334-.223 16.05 16.05 0 0 1 2.335.445 24.729 24.729 0 0 0 3 .445h1.118a6.761 6.761 0 0 0 4.448-2.336 9.239 9.239 0 0 0 1.334-1.89 13.95 13.95 0 0 0 1.444 2.558 6.161 6.161 0 0 0 3.225 1.89h3.448a15.477 15.477 0 0 0 10.9-4.116 11.7 11.7 0 0 0 4.116-8.784c.221-4.679-2.114-5.456-4.115-5.456zm-51.707 7.005a20.487 20.487 0 0 1 4.67-2.112v.222c.223 3.225.223 4.116.223 4.116 0 1.112-.445 1.668-1.112 1.891a7.968 7.968 0 0 1-2.78.444c-4.225 0-4.448-.889-4.448-.889 0-1.114 1.111-2.449 3.446-3.672zm45.147.89a41.914 41.914 0 0 1 5.782-5.561 6.355 6.355 0 0 1 2.112 4.225 6.536 6.536 0 0 1-.222 1.89c-2.112 3.447-5.782 5.115-10.9 5.115H65.6a62.158 62.158 0 0 1 4.668-5.67z" class="cls-1" transform="translate(-18.893 -333.023)"/>
            </g>
        </g>
    </g>
</svg>
