<svg xmlns="http://www.w3.org/2000/svg" viewBox="0 0 82.176 82.175">
    <defs>
        <style>
            .cls-1{fill:#fff}
        </style>
    </defs>
    <path id="tabkha-logo" d="M41.089 82.175a40.885 40.885 0 0 1-22.973-7.017A41.2 41.2 0 0 1 3.228 57.081a41.039 41.039 0 0 1 3.788-38.967A41.207 41.207 0 0 1 25.1 3.228a41.038 41.038 0 0 1 38.961 3.788 41.2 41.2 0 0 1 14.886 18.078 41.034 41.034 0 0 1-3.788 38.966 41.216 41.216 0 0 1-18.078 14.887 40.827 40.827 0 0 1-15.992 3.228zM17.178 40.527c.5.505 1.046.962 1.569 1.4.5.418 1.06.892 1.573 1.4v16.4c.2.262.409.579.626.915a6.942 6.942 0 0 0 2.514 2.673 24.68 24.68 0 0 0 7.547 2.629 49.337 49.337 0 0 0 9.449.873 48.74 48.74 0 0 0 12.717-1.583c4.051-1.117 7.093-2.752 8.794-4.727.092-2.446.05-5.032.01-7.532a96.425 96.425 0 0 1 .223-10.65 2.533 2.533 0 0 1 1.822-1.1 14.784 14.784 0 0 1 3.147-.251c.707 0 1.463.02 2.195.039h.095c.771.021 1.565.042 2.328.042 2.11 0 4.406-.145 5.439-1.221a2.174 2.174 0 0 0 .575-1.665c0-.642-.523-1.138-1.557-1.472a12.16 12.16 0 0 0-3.575-.439 20.606 20.606 0 0 0-4.855.563c-.456.12-.869.25-1.231.363a8.518 8.518 0 0 1-2.605.528 5.908 5.908 0 0 1-1.886-.331c.25-3.63-.488-6.368-2.256-8.373-1.482-1.681-3.719-2.85-6.84-3.575a56.934 56.934 0 0 0-9.313-1.075 3.323 3.323 0 0 0-.638-2.65 2.257 2.257 0 0 0-1.713-.741 2.844 2.844 0 0 0-2.1.963 3.231 3.231 0 0 0-.715 2.654 43.2 43.2 0 0 1-5.463.809h-.024a54.633 54.633 0 0 0-7.762 1.227c-2.676.721-4.217 1.743-4.713 3.124a7.539 7.539 0 0 0-.279 3.623 19.616 19.616 0 0 1 .053 3.114c-.364.036-.714.052-1.069.052a17.415 17.415 0 0 1-2.768-.278h-.01c-.757-.117-1.614-.251-2.664-.334a22.947 22.947 0 0 0-2.667-.165 10.628 10.628 0 0 0-3.248.408c-.993.33-1.534.853-1.607 1.553a1.6 1.6 0 0 0 .348 1.362c1.111 1.312 4.452 1.481 7.24 1.481.655 0 1.3-.011 1.877-.02h.12c.462-.007.907-.013 1.297-.013zM42.2 65a45.207 45.207 0 0 1-16.718-2.917c.118-.7.6-.946 1.109-1.207a2.272 2.272 0 0 0 1.247-1.149 4.029 4.029 0 0 0-2.786 1.312c-.176.151-.377.324-.582.483-.175-.143-.36-.278-.555-.422l-.025-.019c-1.163-.853-2.482-1.82-2-4.5.456-.241.94-.473 1.407-.7a12.183 12.183 0 0 0 4.094-2.67 2.763 2.763 0 0 0-.287-.015 6.619 6.619 0 0 0-3.364 1.418h-.007a5.684 5.684 0 0 1-1.843.951v-3.93a16.8 16.8 0 0 1 1.922-1.233l.016-.009a16.843 16.843 0 0 0 4.012-2.912c-1.885 0-3.452 1.24-4.711 2.238a11.84 11.84 0 0 1-1.239.906v-4.37c3.423-1.262 4.779-2.528 5.5-3.369-2.636.589-4.327 1.507-5.164 2.808a4.358 4.358 0 0 1-.184-2.041v-.007A9.366 9.366 0 0 0 22 41.762l.4-.2a9.226 9.226 0 0 0 3.981-2.948 1.2 1.2 0 0 0-.218-.019 4.75 4.75 0 0 0-2.254 1.065 9.058 9.058 0 0 1-1.9 1.08c-.127-1.483.758-1.974 1.615-2.449a2.75 2.75 0 0 0 1.53-1.481.8.8 0 0 0-.329-.072 2.121 2.121 0 0 0-1.174.623 2.75 2.75 0 0 1-1.642.8v-4.93a22.219 22.219 0 0 0 8.3 3.509 47.424 47.424 0 0 0 10.566 1.093 61.058 61.058 0 0 0 11.06-1.015 39.748 39.748 0 0 0 9.258-2.8v26.271C57.11 63.283 50.191 65 42.2 65zm-14.922-6.85c-.3.117-.619.221-.9.314-1.156.386-2.247.75-2.692 1.82a2.164 2.164 0 0 0 .383.031 3.877 3.877 0 0 0 3.209-2.165zm-.448-2.582c-.311.156-.666.309-1.041.472l-.038.016c-1.525.659-3.254 1.405-3.078 2.657.27-.158.571-.316.863-.471 1.251-.662 2.664-1.411 3.294-2.674zm.224-5.388a7.161 7.161 0 0 1-1.691 1.079h-.006a8.913 8.913 0 0 0-1.905 1.208 2.156 2.156 0 0 0-.776 1.867 7.086 7.086 0 0 1 2.24-1.751c1.271-.765 2.466-1.487 2.139-2.406zm0-4.716c-1.935.607-3.844 1.405-4.715 3.143a8.223 8.223 0 0 0 4.715-3.143zm-.228-4.6c-1.75.437-4.37 1.771-4.716 3.368a16.481 16.481 0 0 1 1.462-.805 7.031 7.031 0 0 0 3.254-2.562zm-6.509.453a2.968 2.968 0 0 0-1.563-1.34 6.426 6.426 0 0 1-.8-.455v-1.35h.006a3.388 3.388 0 0 0 .854-.138h.005a3.7 3.7 0 0 1 .933-.146 2.526 2.526 0 0 1 .56.063c0 1 0 2.128-.788 2.353a.64.64 0 0 0 .292.121c.291.074.654.167.5.887zm41.883-.452v-2.356a10.41 10.41 0 0 0 2.168.306 2.943 2.943 0 0 0 1.425-.306c.209 1.463-.914 1.627-2 1.785a2.47 2.47 0 0 0-1.592.57zm9.021-1.023a12.93 12.93 0 0 1-4.2-.664c-.093-.092-.05-.282-.009-.465s.079-.366 0-.467a.253.253 0 0 0-.212-.077c.592-.045 1.228-.114 1.9-.186l.064-.006h.016a40.466 40.466 0 0 1 4.257-.309 8.82 8.82 0 0 1 3.3.5c-.827 1.065-2.694 1.674-5.121 1.674zm-56.9-.536c-2.27 0-4.846-.088-6.683-1.134.841-.966 2.471-1.1 3.955-1.1.647 0 1.331.03 1.992.058h.091c.654.028 1.33.056 1.974.056.4 0 .753-.011 1.08-.034v2.131h-.1c-.388 0-.78 0-1.078.006-.364.011-.808.017-1.234.017zm25.568-2.378a38.564 38.564 0 0 1-11.469-1.469c-3.638-1.153-6.06-2.96-7.2-5.371 3.277-2.39 8.37-3.105 13.294-3.8 1.217-.171 2.6-.363 3.885-.583.645.186.608 1.274.574 2.233-.007.182-.014.387-.014.574a3.948 3.948 0 0 0 4.156 0c.393-.281.393-1 .393-1.7s0-1.333.393-1.446c.445-.026.894-.039 1.338-.039a30.74 30.74 0 0 1 9.1 1.612 18.948 18.948 0 0 1 4.239 1.866c1.6 1.051 2.291 2.275 2.047 3.636v-.005c-.1.691-1.024 1.363-2.75 1.993a29.69 29.69 0 0 1-4.434 1.154 72.192 72.192 0 0 1-13.555 1.345zm2.328-9.085h-1.574l-.033-.18c-.337-1.784-.718-3.808.256-5.544a1.336 1.336 0 0 1 1.037.413c.706.777.539 2.529.4 3.935v.023c-.047.5-.092.975-.092 1.351z" class="cls-1"/>
</svg>
