<svg xmlns="http://www.w3.org/2000/svg" viewBox="0 0 140.678 59.299">
    <defs>
        <style>
            .cls-1{fill:#fff}
        </style>
    </defs>
    <g id="logo-rajil">
        <g id="Layer_1" data-name="Layer 1">
            <path id="Path_41" d="M21.821 59.862l-6.8-23.1-2.311.129v22.971H0V.69h14.76q9.435 0 13.862 4.236c2.947 2.823 4.365 7.317 4.365 13.606a25.858 25.858 0 0 1-1.54 9.5 10.651 10.651 0 0 1-4.878 5.648c.641 2.053 1.289 4.236 2.053 6.418s1.413 4.492 2.178 6.672c.77 2.311 1.413 4.492 2.053 6.674s1.413 4.365 2.053 6.289H21.821zM19 13.4c-.764-1.026-2.182-1.54-4.363-1.54h-1.93v14.12h2.182c2.053 0 3.466-.514 4.107-1.668.77-1.155 1.155-2.947 1.155-5.525S19.768 14.425 19 13.4z" class="cls-1" data-name="Path 41" transform="translate(0 -.563)"/>
            <path id="Path_42" d="M413.324 56.781q-3.851 3.081-11.167 3.081h-4.877V48.31h3.466a5.225 5.225 0 0 0 2.7-.641 2.781 2.781 0 0 0 .9-2.311V.69h12.707v45.823c-.007 4.878-1.291 8.215-3.729 10.268z" class="cls-1" data-name="Path 42" transform="translate(-324.117 -.563)"/>
            <path id="Path_43" d="M524.13 59.862V.69h12.836v59.172z" class="cls-1" data-name="Path 43" transform="translate(-427.606 -.563)"/>
            <path id="Path_44" d="M613.34 59.862V.69h12.707v47.62h15.018v11.418H613.34z" class="cls-1" data-name="Path 44" transform="translate(-500.388 -.563)"/>
            <path id="Path_45" d="M203.13 59.3v-.256l.129-1.028a6.445 6.445 0 0 1 .256-1.54 35.212 35.212 0 0 0 .641-3.593q.184-1.54.385-3.081c.258-2.567.641-5.261.77-7.829a29.818 29.818 0 0 1 .385-3.337c.129-1.289.385-2.567.514-3.851l-.25 1.667c0 .127 0 .127-.129.256a.982.982 0 0 1-.641.256l-.77.129a1.779 1.779 0 0 1 0 1.155c0 .256-.129.643-.129.9a.125.125 0 0 0 .129.129c.129.127 0 .127 0 .256-.129.258-.256.385-.385.643a.471.471 0 0 1-.385.127.471.471 0 0 0-.385.129.788.788 0 0 1-.77-.129c-.129-.127-.256-.256-.256-.385-.129-.129-.256-.258-.256-.385l-.129-.129c-.129-.127 0-.514 0-.77s.256-.385.256-.641l.258-.77c0-.129.256-.643.256-.77l-.129-.129c-.129-.129 0-.258 0-.385 0-.258.129-.385.129-.641a12.915 12.915 0 0 0 .385-2.182l.372-2.7a33.378 33.378 0 0 0 0-3.593c0-2.053-.129-4.236.9-6.033a4.529 4.529 0 0 1 1.924-2.182c0-.129 1.028-.385 1.155-.514a5.144 5.144 0 0 0 .77-.256 7.184 7.184 0 0 0 1.028-.641c.129-.129.129-.514.129-.641a8.682 8.682 0 0 1 .256-1.8 14.919 14.919 0 0 1 .514-2.311c0-.129.129-.256.256-.385h.514a13.967 13.967 0 0 1 2.311-.129 5.733 5.733 0 0 1 2.947.514c.129 0 .129.129.256.258l.129.129.129.129a.772.772 0 0 1 .129.514v.641a10.255 10.255 0 0 0-.385 1.926 2.377 2.377 0 0 1-.252.9 2.689 2.689 0 0 1-.514.77.184.184 0 0 0 0 .256c.129 0 .256.129.385.129h.129c.129.129.256.129.514.256l.129.129c.129.129.385.258.514.385a4.488 4.488 0 0 1 1.926 1.54 6.1 6.1 0 0 1 .9 2.947 37.211 37.211 0 0 1 .126 6.546 8.886 8.886 0 0 1-.77 3.337 7.283 7.283 0 0 1-1.028 1.668 5.64 5.64 0 0 0-.514.9 4.376 4.376 0 0 1-.385.77l-.258.258c0 .514.129 1.028.129 1.54.129.641.129 1.289.256 1.924.258 2.311.385 4.749.641 7.059.258 1.8.385 3.595.641 5.39.129 1.668.385 3.466.514 5.134v1.289h10.659L219.3 0h-14.63l-10.91 59.172h4.492zm13.477-46.336v-.385c-.129-.129-.129-.385-.385-.385-.9-.77-2.053-.641-3.208-.641a4.814 4.814 0 0 0-1.289.129c-.385 0-.9.129-1.289.129.129-.129.385-.129.385-.258.385-.385.514-.77 1.028-1.026a3.365 3.365 0 0 1 1.926-.258 6.7 6.7 0 0 1 1.668.77c.129.129.258.129.385.256l.129.129a.772.772 0 0 0 .129.514l.385.385v.256a1 1 0 0 1 .136.385z" class="cls-1" data-name="Path 45" transform="translate(-158.077)"/>
            <path id="Path_46" d="M245.429 208.212a.449.449 0 0 1-.129.258l.256.385.129-.256c0-.256.129-.641.129-.9a.689.689 0 0 0-.385.513z" class="cls-1" data-name="Path 46" transform="translate(-200.126 -169.45)"/>
        </g>
    </g>
</svg>
